# Snowfield fractured_peak: deterministic authored geometry
o fractured_peak
v 1.084932 0.000000 0.000000
v 0.706272 0.000000 0.706272
v 0.000000 0.000000 0.898403
v -0.636505 0.000000 0.636505
v -0.947280 0.000000 0.000000
v -0.769935 0.000000 -0.769935
v -0.000000 0.000000 -1.103412
v 0.677304 0.000000 -0.677304
v 0.814458 0.296537 -0.013583
v 0.638138 0.295680 0.580093
v 0.034448 0.300217 0.689773
v -0.430401 0.301139 0.417220
v -0.633960 0.325800 -0.064299
v -0.454377 0.336258 -0.591705
v 0.086271 0.281537 -0.790296
v 0.690080 0.329839 -0.627449
v 0.449795 0.698597 -0.056877
v 0.390440 0.694063 0.231223
v 0.093111 0.678902 0.303501
v -0.180884 0.646683 0.181455
v -0.211727 0.675227 -0.103259
v -0.156336 0.628439 -0.398008
v 0.147727 0.659541 -0.475456
v 0.397936 0.675790 -0.321515
v 0.130000 1.000000 -0.080000
vn 0.679661 0.636615 0.364392
vn 0.906754 0.324070 0.269772
vn 0.237357 0.427039 0.872525
vn 0.153066 0.552036 0.819651
vn -0.313730 0.565865 0.762477
vn -0.361306 0.697723 0.618580
vn -0.656547 0.682778 0.320561
vn -0.653433 0.689892 0.311568
vn -0.726904 0.666016 -0.167433
vn -0.655466 0.725788 -0.208796
vn -0.301432 0.651759 -0.695951
vn -0.157152 0.755508 -0.636012
vn 0.420250 0.614144 -0.667994
vn 0.247886 0.135395 -0.959281
vn 0.855940 0.044711 -0.515138
vn 0.736664 0.666736 -0.113089
vn 0.712299 0.668930 0.212517
vn 0.764835 0.622106 0.167364
vn 0.133004 0.698472 0.703169
vn 0.135593 0.697119 0.704017
vn -0.364050 0.692126 0.623241
vn -0.360887 0.689250 0.628248
vn -0.656050 0.686969 0.312525
vn -0.622912 0.768819 0.144558
vn -0.635444 0.745367 -0.201590
vn -0.598751 0.765958 -0.234108
vn -0.194444 0.672034 -0.714536
vn -0.250109 0.643333 -0.723580
vn 0.158669 0.616523 -0.771184
vn 0.302755 0.761952 -0.572510
vn 0.711299 0.694785 -0.106428
vn 0.736370 0.646342 -0.200003
vn 0.672355 0.724886 0.149929
vn 0.118045 0.755751 0.644132
vn -0.345966 0.735497 0.582540
vn -0.686732 0.712141 0.145790
vn -0.660702 0.712181 -0.237214
vn -0.237727 0.730817 -0.639837
vn 0.327145 0.723339 -0.608077
vn 0.680212 0.706820 -0.194210
f 1//1 9//1 2//1
f 2//2 9//2 10//2
f 2//3 10//3 3//3
f 3//4 10//4 11//4
f 3//5 11//5 4//5
f 4//6 11//6 12//6
f 4//7 12//7 5//7
f 5//8 12//8 13//8
f 5//9 13//9 6//9
f 6//10 13//10 14//10
f 6//11 14//11 7//11
f 7//12 14//12 15//12
f 7//13 15//13 8//13
f 8//14 15//14 16//14
f 8//15 16//15 1//15
f 1//16 16//16 9//16
f 9//17 17//17 10//17
f 10//18 17//18 18//18
f 10//19 18//19 11//19
f 11//20 18//20 19//20
f 11//21 19//21 12//21
f 12//22 19//22 20//22
f 12//23 20//23 13//23
f 13//24 20//24 21//24
f 13//25 21//25 14//25
f 14//26 21//26 22//26
f 14//27 22//27 15//27
f 15//28 22//28 23//28
f 15//29 23//29 16//29
f 16//30 23//30 24//30
f 16//31 24//31 9//31
f 9//32 24//32 17//32
f 17//33 25//33 18//33
f 18//34 25//34 19//34
f 19//35 25//35 20//35
f 20//36 25//36 21//36
f 21//37 25//37 22//37
f 22//38 25//38 23//38
f 23//39 25//39 24//39
f 24//40 25//40 17//40
