# Snowfield glacial_boulder: deterministic authored geometry
o glacial_boulder
v 1.013144 0.000000 0.000000
v 0.777164 0.000000 0.652118
v 0.170885 0.000000 0.969136
v -0.515641 0.000000 0.893117
v -0.928380 0.000000 0.337903
v -0.928607 0.000000 -0.337985
v -0.454631 0.000000 -0.787443
v 0.156845 0.000000 -0.889515
v 0.786398 0.000000 -0.659866
v 0.880215 0.354073 -0.011281
v 0.746891 0.328696 0.578595
v 0.195804 0.330910 0.926950
v -0.415040 0.363994 0.720065
v -0.806043 0.341272 0.241305
v -0.682467 0.350323 -0.340057
v -0.348279 0.314019 -0.808035
v 0.256754 0.332004 -0.965229
v 0.735094 0.333756 -0.567340
v 0.678115 0.722592 -0.040868
v 0.575369 0.691747 0.359909
v 0.188172 0.742414 0.569779
v -0.225636 0.702239 0.432221
v -0.473763 0.690556 0.090139
v -0.434456 0.719412 -0.326984
v -0.169304 0.697262 -0.673442
v 0.264399 0.735782 -0.658690
v 0.659260 0.726043 -0.471641
v 0.130000 1.000000 -0.080000
vn 0.883648 0.341933 0.319763
vn 0.964632 0.138951 0.224005
vn 0.450482 0.234196 0.861521
vn 0.533302 0.067342 0.843240
vn -0.109069 0.133786 0.984990
vn -0.259712 0.472248 0.842337
vn -0.716247 0.451097 0.532449
vn -0.714071 0.415465 0.563464
vn -0.941316 0.337527 0.000317
vn -0.807754 0.566573 -0.162878
vn -0.620529 0.432121 -0.654381
vn -0.783995 0.227651 -0.577518
vn -0.164642 -0.008916 -0.986313
vn -0.244766 -0.144972 -0.958683
vn 0.326637 -0.302498 -0.895435
vn 0.609916 0.297391 -0.734548
vn 0.920548 0.229197 -0.316323
vn 0.909188 0.333386 -0.249462
vn 0.849425 0.482918 0.212764
vn 0.809425 0.532071 0.248460
vn 0.426777 0.605989 0.671296
vn 0.442421 0.592515 0.673194
vn -0.215876 0.637748 0.739375
vn -0.283573 0.708617 0.646102
vn -0.574315 0.692765 0.436165
vn -0.575369 0.717376 0.392838
vn -0.747826 0.646984 -0.148888
vn -0.828725 0.558263 -0.039472
vn -0.693510 0.484879 -0.532857
vn -0.669916 0.504234 -0.544941
vn -0.239926 0.419508 -0.875471
vn -0.026641 0.604772 -0.795953
vn 0.553939 0.496741 -0.668131
vn 0.415475 0.290588 -0.861940
vn 0.936431 0.242808 -0.253263
vn 0.877446 0.478427 -0.034573
vn 0.434044 0.882884 0.179224
vn 0.295705 0.896821 0.329046
vn -0.212690 0.901677 0.376485
vn -0.385228 0.888573 0.249074
vn -0.451750 0.891939 0.019134
vn -0.316321 0.900089 -0.299634
vn -0.065576 0.901868 -0.427005
vn 0.197164 0.908307 -0.368924
vn 0.452255 0.891799 -0.012651
f 1//1 10//1 2//1
f 2//2 10//2 11//2
f 2//3 11//3 3//3
f 3//4 11//4 12//4
f 3//5 12//5 4//5
f 4//6 12//6 13//6
f 4//7 13//7 5//7
f 5//8 13//8 14//8
f 5//9 14//9 6//9
f 6//10 14//10 15//10
f 6//11 15//11 7//11
f 7//12 15//12 16//12
f 7//13 16//13 8//13
f 8//14 16//14 17//14
f 8//15 17//15 9//15
f 9//16 17//16 18//16
f 9//17 18//17 1//17
f 1//18 18//18 10//18
f 10//19 19//19 11//19
f 11//20 19//20 20//20
f 11//21 20//21 12//21
f 12//22 20//22 21//22
f 12//23 21//23 13//23
f 13//24 21//24 22//24
f 13//25 22//25 14//25
f 14//26 22//26 23//26
f 14//27 23//27 15//27
f 15//28 23//28 24//28
f 15//29 24//29 16//29
f 16//30 24//30 25//30
f 16//31 25//31 17//31
f 17//32 25//32 26//32
f 17//33 26//33 18//33
f 18//34 26//34 27//34
f 18//35 27//35 10//35
f 10//36 27//36 19//36
f 19//37 28//37 20//37
f 20//38 28//38 21//38
f 21//39 28//39 22//39
f 22//40 28//40 23//40
f 23//41 28//41 24//41
f 24//42 28//42 25//42
f 25//43 28//43 26//43
f 26//44 28//44 27//44
f 27//45 28//45 19//45
