# Authored winter river; Wavefront CCW faces are converted by Godot's OBJ importer.
o river_bridge_wood
v -6.017251 -0.045000 -8.000000
v -5.467674 -0.045000 -7.000000
v 11.714167 -0.045000 -7.000000
v -6.017251 -0.045000 -8.000000
v 11.714167 -0.045000 -7.000000
v 11.051882 -0.045000 -8.000000
v -5.467674 -0.045000 -7.000000
v -4.885873 -0.045000 -6.000000
v 12.406006 -0.045000 -6.000000
v -5.467674 -0.045000 -7.000000
v 12.406006 -0.045000 -6.000000
v 11.714167 -0.045000 -7.000000
v -4.885873 -0.045000 -6.000000
v -4.275444 -0.045000 -5.000000
v 13.123407 -0.045000 -5.000000
v -4.885873 -0.045000 -6.000000
v 13.123407 -0.045000 -5.000000
v 12.406006 -0.045000 -6.000000
v -4.275444 -0.045000 -5.000000
v -3.640271 -0.045000 -4.000000
v 13.862102 -0.045000 -4.000000
v -4.275444 -0.045000 -5.000000
v 13.862102 -0.045000 -4.000000
v 13.123407 -0.045000 -5.000000
v -3.640271 -0.045000 -4.000000
v -2.984477 -0.045000 -3.000000
v 14.617593 -0.045000 -3.000000
v -3.640271 -0.045000 -4.000000
v 14.617593 -0.045000 -3.000000
v 13.862102 -0.045000 -4.000000
v -2.984477 -0.045000 -3.000000
v -2.312389 -0.045000 -2.000000
v 15.385197 -0.045000 -2.000000
v -2.984477 -0.045000 -3.000000
v 15.385197 -0.045000 -2.000000
v 14.617593 -0.045000 -3.000000
v -2.312389 -0.045000 -2.000000
v -1.628486 -0.045000 -1.000000
v 16.160090 -0.045000 -1.000000
v -2.312389 -0.045000 -2.000000
v 16.160090 -0.045000 -1.000000
v 15.385197 -0.045000 -2.000000
v -1.628486 -0.045000 -1.000000
v -0.937356 -0.045000 0.000000
v 16.937356 -0.045000 0.000000
v -1.628486 -0.045000 -1.000000
v 16.937356 -0.045000 0.000000
v 16.160090 -0.045000 -1.000000
v -0.937356 -0.045000 0.000000
v -0.243644 -0.045000 1.000000
v 17.712041 -0.045000 1.000000
v -0.937356 -0.045000 0.000000
v 17.712041 -0.045000 1.000000
v 16.937356 -0.045000 0.000000
v -0.243644 -0.045000 1.000000
v 0.447994 -0.045000 2.000000
v 18.479197 -0.045000 2.000000
v -0.243644 -0.045000 1.000000
v 18.479197 -0.045000 2.000000
v 17.712041 -0.045000 1.000000
v 0.447994 -0.045000 2.000000
v 1.132945 -0.045000 3.000000
v 19.233939 -0.045000 3.000000
v 0.447994 -0.045000 2.000000
v 19.233939 -0.045000 3.000000
v 18.479197 -0.045000 2.000000
v 1.132945 -0.045000 3.000000
v 1.806680 -0.045000 4.000000
v 19.971489 -0.045000 4.000000
v 1.132945 -0.045000 3.000000
v 19.971489 -0.045000 4.000000
v 19.233939 -0.045000 3.000000
v 1.806680 -0.045000 4.000000
v 2.464812 -0.045000 5.000000
v 20.687226 -0.045000 5.000000
v 1.806680 -0.045000 4.000000
v 20.687226 -0.045000 5.000000
v 19.971489 -0.045000 4.000000
v 2.464812 -0.045000 5.000000
v 3.103130 -0.045000 6.000000
v 21.376737 -0.045000 6.000000
v 2.464812 -0.045000 5.000000
v 21.376737 -0.045000 6.000000
v 20.687226 -0.045000 5.000000
v 3.103130 -0.045000 6.000000
v 3.717655 -0.045000 7.000000
v 22.035853 -0.045000 7.000000
v 3.103130 -0.045000 6.000000
v 22.035853 -0.045000 7.000000
v 21.376737 -0.045000 6.000000
v 3.717655 -0.045000 7.000000
v 4.304669 -0.045000 8.000000
v 22.660701 -0.045000 8.000000
v 3.717655 -0.045000 7.000000
v 22.660701 -0.045000 8.000000
v 22.035853 -0.045000 7.000000
v -6.011926 0.000000 -7.990000
v -5.723738 0.000000 -7.458276
v 11.406759 0.000000 -7.458276
v -6.011926 0.000000 -7.990000
v 11.406759 0.000000 -7.458276
v 11.058346 0.000000 -7.990000
v -5.712709 0.000000 -7.438276
v -5.414618 0.000000 -6.906552
v 11.777625 0.000000 -6.906552
v -5.712709 0.000000 -7.438276
v 11.777625 0.000000 -6.906552
v 11.420040 0.000000 -7.438276
v -5.403226 0.000000 -6.886552
v -5.095781 0.000000 -6.354828
v 12.157384 0.000000 -6.354828
v -5.403226 0.000000 -6.886552
v 12.157384 0.000000 -6.354828
v 11.791240 0.000000 -6.886552
v -5.084048 0.000000 -6.334828
v -4.767826 0.000000 -5.803103
v 12.545370 0.000000 -5.803103
v -5.084048 0.000000 -6.334828
v 12.545370 0.000000 -5.803103
v 12.171309 0.000000 -6.334828
v -4.755775 0.000000 -5.783103
v -4.431379 0.000000 -5.251379
v 12.940891 0.000000 -5.251379
v -4.755775 0.000000 -5.783103
v 12.940891 0.000000 -5.251379
v 12.559580 0.000000 -5.783103
v -4.419031 0.000000 -5.231379
v -4.087090 0.000000 -4.699655
v 13.343233 0.000000 -4.699655
v -4.419031 0.000000 -5.231379
v 13.343233 0.000000 -4.699655
v 12.955362 0.000000 -5.231379
v -4.074471 0.000000 -4.679655
v -3.735634 0.000000 -4.147931
v 13.751656 0.000000 -4.147931
v -4.074471 0.000000 -4.679655
v 13.751656 0.000000 -4.147931
v 13.357937 0.000000 -4.679655
v -3.722768 0.000000 -4.127931
v -3.377708 0.000000 -3.596207
v 14.165402 0.000000 -3.596207
v -3.722768 0.000000 -4.127931
v 14.165402 0.000000 -3.596207
v 13.766566 0.000000 -4.127931
v -3.364621 0.000000 -3.576207
v -3.014027 0.000000 -3.044483
v 14.583694 0.000000 -3.044483
v -3.364621 0.000000 -3.576207
v 14.583694 0.000000 -3.044483
v 14.180491 0.000000 -3.576207
v -3.000745 0.000000 -3.024483
v -2.645324 0.000000 -2.492759
v 15.005740 0.000000 -2.492759
v -3.000745 0.000000 -3.024483
v 15.005740 0.000000 -2.492759
v 14.598933 0.000000 -3.024483
v -2.631874 0.000000 -2.472759
v -2.272345 0.000000 -1.941034
v 15.430735 0.000000 -1.941034
v -2.631874 0.000000 -2.472759
v 15.430735 0.000000 -1.941034
v 15.021100 0.000000 -2.472759
v -2.258754 0.000000 -1.921034
v -1.895850 0.000000 -1.389310
v 15.857862 0.000000 -1.389310
v -2.258754 0.000000 -1.921034
v 15.857862 0.000000 -1.389310
v 15.446186 0.000000 -1.921034
v -1.882146 0.000000 -1.369310
v -1.516607 0.000000 -0.837586
v 16.286297 0.000000 -0.837586
v -1.882146 0.000000 -1.369310
v 16.286297 0.000000 -0.837586
v 15.873375 0.000000 -1.369310
v -1.502817 0.000000 -0.817586
v -1.135391 0.000000 -0.285862
v 16.715212 0.000000 -0.285862
v -1.502817 0.000000 -0.817586
v 16.715212 0.000000 -0.285862
v 16.301842 0.000000 -0.817586
v -1.121545 0.000000 -0.265862
v -0.752984 0.000000 0.265862
v 17.143772 0.000000 0.265862
v -1.121545 0.000000 -0.265862
v 17.143772 0.000000 0.265862
v 16.730758 0.000000 -0.265862
v -0.739110 0.000000 0.285862
v -0.370169 0.000000 0.817586
v 17.571144 0.000000 0.817586
v -0.739110 0.000000 0.285862
v 17.571144 0.000000 0.817586
v 17.159290 0.000000 0.285862
v -0.356294 0.000000 0.837586
v 0.012273 0.000000 1.369310
v 17.996498 0.000000 1.369310
v -0.356294 0.000000 0.837586
v 17.996498 0.000000 1.369310
v 17.586603 0.000000 0.837586
v 0.026120 0.000000 1.389310
v 0.393562 0.000000 1.921034
v 18.419007 0.000000 1.921034
v 0.026120 0.000000 1.389310
v 18.419007 0.000000 1.921034
v 18.011869 0.000000 1.389310
v 0.407352 0.000000 1.941034
v 0.772923 0.000000 2.472759
v 18.837851 0.000000 2.472759
v 0.407352 0.000000 1.941034
v 18.837851 0.000000 2.472759
v 18.434259 0.000000 1.941034
v 0.786629 0.000000 2.492759
v 1.149592 0.000000 3.024483
v 19.252221 0.000000 3.024483
v 0.786629 0.000000 2.492759
v 19.252221 0.000000 3.024483
v 18.852955 0.000000 2.492759
v 1.163186 0.000000 3.044483
v 1.522810 0.000000 3.576207
v 19.661320 0.000000 3.576207
v 1.163186 0.000000 3.044483
v 19.661320 0.000000 3.576207
v 19.267148 0.000000 3.044483
v 1.536265 0.000000 3.596207
v 1.891836 0.000000 4.127931
v 20.064365 0.000000 4.127931
v 1.536265 0.000000 3.596207
v 20.064365 0.000000 4.127931
v 19.676041 0.000000 3.596207
v 1.905126 0.000000 4.147931
v 2.255942 0.000000 4.679655
v 20.460592 0.000000 4.679655
v 1.905126 0.000000 4.147931
v 20.460592 0.000000 4.679655
v 20.078852 0.000000 4.147931
v 2.269039 0.000000 4.699655
v 2.614416 0.000000 5.231379
v 20.849253 0.000000 5.231379
v 2.269039 0.000000 4.699655
v 20.849253 0.000000 5.231379
v 20.474817 0.000000 4.699655
v 2.627296 0.000000 5.251379
v 2.966569 0.000000 5.783103
v 21.229626 0.000000 5.783103
v 2.627296 0.000000 5.251379
v 21.229626 0.000000 5.783103
v 20.863191 0.000000 5.251379
v 2.979207 0.000000 5.803103
v 3.311730 0.000000 6.334828
v 21.601010 0.000000 6.334828
v 2.979207 0.000000 5.803103
v 21.601010 0.000000 6.334828
v 21.243250 0.000000 5.803103
v 3.324102 0.000000 6.354828
v 3.649255 0.000000 6.886552
v 21.962731 0.000000 6.886552
v 3.324102 0.000000 6.354828
v 21.962731 0.000000 6.886552
v 21.614295 0.000000 6.354828
v 3.661338 0.000000 6.906552
v 3.978524 0.000000 7.438276
v 22.314145 0.000000 7.438276
v 3.661338 0.000000 6.906552
v 22.314145 0.000000 7.438276
v 21.975654 0.000000 6.906552
v 3.990297 0.000000 7.458276
v 4.298946 0.000000 7.990000
v 22.654634 0.000000 7.990000
v 3.990297 0.000000 7.458276
v 22.654634 0.000000 7.990000
v 22.326682 0.000000 7.458276
v -6.913502 0.880000 -8.320000
v 11.690518 0.880000 -8.120000
v 11.690518 0.880000 -8.320000
v -6.913502 0.880000 -8.320000
v -6.913502 0.880000 -8.120000
v 11.690518 0.880000 -8.120000
v -6.913502 0.680000 -8.320000
v 11.690518 0.680000 -8.120000
v -6.913502 0.680000 -8.120000
v -6.913502 0.680000 -8.320000
v 11.690518 0.680000 -8.320000
v 11.690518 0.680000 -8.120000
v -6.913502 0.680000 -8.320000
v 11.690518 0.880000 -8.320000
v 11.690518 0.680000 -8.320000
v -6.913502 0.680000 -8.320000
v -6.913502 0.880000 -8.320000
v 11.690518 0.880000 -8.320000
v -6.913502 0.680000 -8.120000
v 11.690518 0.880000 -8.120000
v -6.913502 0.880000 -8.120000
v -6.913502 0.680000 -8.120000
v 11.690518 0.680000 -8.120000
v 11.690518 0.880000 -8.120000
v -6.913502 0.680000 -8.320000
v -6.913502 0.880000 -8.120000
v -6.913502 0.880000 -8.320000
v -6.913502 0.680000 -8.320000
v -6.913502 0.680000 -8.120000
v -6.913502 0.880000 -8.120000
v 11.690518 0.680000 -8.320000
v 11.690518 0.880000 -8.120000
v 11.690518 0.680000 -8.120000
v 11.690518 0.680000 -8.320000
v 11.690518 0.880000 -8.320000
v 11.690518 0.880000 -8.120000
v 3.649775 0.880000 8.120000
v 23.573209 0.880000 8.320000
v 23.573209 0.880000 8.120000
v 3.649775 0.880000 8.120000
v 3.649775 0.880000 8.320000
v 23.573209 0.880000 8.320000
v 3.649775 0.680000 8.120000
v 23.573209 0.680000 8.320000
v 3.649775 0.680000 8.320000
v 3.649775 0.680000 8.120000
v 23.573209 0.680000 8.120000
v 23.573209 0.680000 8.320000
v 3.649775 0.680000 8.120000
v 23.573209 0.880000 8.120000
v 23.573209 0.680000 8.120000
v 3.649775 0.680000 8.120000
v 3.649775 0.880000 8.120000
v 23.573209 0.880000 8.120000
v 3.649775 0.680000 8.320000
v 23.573209 0.880000 8.320000
v 3.649775 0.880000 8.320000
v 3.649775 0.680000 8.320000
v 23.573209 0.680000 8.320000
v 23.573209 0.880000 8.320000
v 3.649775 0.680000 8.120000
v 3.649775 0.880000 8.320000
v 3.649775 0.880000 8.120000
v 3.649775 0.680000 8.120000
v 3.649775 0.680000 8.320000
v 3.649775 0.880000 8.320000
v 23.573209 0.680000 8.120000
v 23.573209 0.880000 8.320000
v 23.573209 0.680000 8.320000
v 23.573209 0.680000 8.120000
v 23.573209 0.880000 8.120000
v 23.573209 0.880000 8.320000
vn 0.000000 1.000000 0.000000
vn 0.000000 1.000000 0.000000
vn 0.000000 1.000000 0.000000
vn 0.000000 1.000000 0.000000
vn 0.000000 1.000000 0.000000
vn 0.000000 1.000000 0.000000
vn 0.000000 1.000000 0.000000
vn 0.000000 1.000000 0.000000
vn 0.000000 1.000000 0.000000
vn 0.000000 1.000000 0.000000
vn 0.000000 1.000000 0.000000
vn 0.000000 1.000000 0.000000
vn 0.000000 1.000000 0.000000
vn 0.000000 1.000000 0.000000
vn 0.000000 1.000000 0.000000
vn 0.000000 1.000000 0.000000
vn 0.000000 1.000000 0.000000
vn 0.000000 1.000000 0.000000
vn 0.000000 1.000000 0.000000
vn 0.000000 1.000000 0.000000
vn 0.000000 1.000000 0.000000
vn 0.000000 1.000000 0.000000
vn 0.000000 1.000000 0.000000
vn 0.000000 1.000000 0.000000
vn 0.000000 1.000000 0.000000
vn 0.000000 1.000000 0.000000
vn 0.000000 1.000000 0.000000
vn 0.000000 1.000000 0.000000
vn 0.000000 1.000000 0.000000
vn 0.000000 1.000000 0.000000
vn 0.000000 1.000000 0.000000
vn 0.000000 1.000000 0.000000
vn 0.000000 1.000000 0.000000
vn 0.000000 1.000000 0.000000
vn 0.000000 1.000000 0.000000
vn 0.000000 1.000000 0.000000
vn 0.000000 1.000000 0.000000
vn 0.000000 1.000000 0.000000
vn 0.000000 1.000000 0.000000
vn 0.000000 1.000000 0.000000
vn 0.000000 1.000000 0.000000
vn 0.000000 1.000000 0.000000
vn 0.000000 1.000000 0.000000
vn 0.000000 1.000000 0.000000
vn 0.000000 1.000000 0.000000
vn 0.000000 1.000000 0.000000
vn 0.000000 1.000000 0.000000
vn 0.000000 1.000000 0.000000
vn 0.000000 1.000000 0.000000
vn 0.000000 1.000000 0.000000
vn 0.000000 1.000000 0.000000
vn 0.000000 1.000000 0.000000
vn 0.000000 1.000000 0.000000
vn 0.000000 1.000000 0.000000
vn 0.000000 1.000000 0.000000
vn 0.000000 1.000000 0.000000
vn 0.000000 1.000000 0.000000
vn 0.000000 1.000000 0.000000
vn 0.000000 1.000000 0.000000
vn 0.000000 1.000000 0.000000
vn 0.000000 1.000000 0.000000
vn 0.000000 1.000000 0.000000
vn 0.000000 1.000000 0.000000
vn 0.000000 1.000000 0.000000
vn 0.000000 1.000000 0.000000
vn 0.000000 1.000000 0.000000
vn 0.000000 1.000000 0.000000
vn 0.000000 1.000000 0.000000
vn 0.000000 1.000000 0.000000
vn 0.000000 1.000000 0.000000
vn 0.000000 1.000000 0.000000
vn 0.000000 1.000000 0.000000
vn 0.000000 1.000000 0.000000
vn 0.000000 1.000000 0.000000
vn 0.000000 1.000000 0.000000
vn 0.000000 1.000000 0.000000
vn 0.000000 1.000000 0.000000
vn 0.000000 1.000000 0.000000
vn 0.000000 1.000000 0.000000
vn 0.000000 1.000000 0.000000
vn 0.000000 1.000000 0.000000
vn 0.000000 1.000000 0.000000
vn 0.000000 1.000000 0.000000
vn 0.000000 1.000000 0.000000
vn 0.000000 1.000000 0.000000
vn 0.000000 1.000000 0.000000
vn 0.000000 1.000000 0.000000
vn 0.000000 1.000000 0.000000
vn 0.000000 1.000000 0.000000
vn 0.000000 1.000000 0.000000
vn -0.000000 1.000000 -0.000000
vn -0.000000 1.000000 -0.000000
vn -0.000000 -1.000000 -0.000000
vn -0.000000 -1.000000 -0.000000
vn -0.000000 -0.000000 -1.000000
vn -0.000000 -0.000000 -1.000000
vn -0.000000 -0.000000 1.000000
vn -0.000000 -0.000000 1.000000
vn -1.000000 -0.000000 -0.000000
vn -1.000000 -0.000000 -0.000000
vn 1.000000 -0.000000 -0.000000
vn 1.000000 -0.000000 -0.000000
vn -0.000000 1.000000 -0.000000
vn -0.000000 1.000000 -0.000000
vn -0.000000 -1.000000 -0.000000
vn -0.000000 -1.000000 -0.000000
vn -0.000000 -0.000000 -1.000000
vn -0.000000 -0.000000 -1.000000
vn -0.000000 -0.000000 1.000000
vn -0.000000 -0.000000 1.000000
vn -1.000000 -0.000000 -0.000000
vn -1.000000 -0.000000 -0.000000
vn 1.000000 -0.000000 -0.000000
vn 1.000000 -0.000000 -0.000000
f 1//1 2//1 3//1
f 4//2 5//2 6//2
f 7//3 8//3 9//3
f 10//4 11//4 12//4
f 13//5 14//5 15//5
f 16//6 17//6 18//6
f 19//7 20//7 21//7
f 22//8 23//8 24//8
f 25//9 26//9 27//9
f 28//10 29//10 30//10
f 31//11 32//11 33//11
f 34//12 35//12 36//12
f 37//13 38//13 39//13
f 40//14 41//14 42//14
f 43//15 44//15 45//15
f 46//16 47//16 48//16
f 49//17 50//17 51//17
f 52//18 53//18 54//18
f 55//19 56//19 57//19
f 58//20 59//20 60//20
f 61//21 62//21 63//21
f 64//22 65//22 66//22
f 67//23 68//23 69//23
f 70//24 71//24 72//24
f 73//25 74//25 75//25
f 76//26 77//26 78//26
f 79//27 80//27 81//27
f 82//28 83//28 84//28
f 85//29 86//29 87//29
f 88//30 89//30 90//30
f 91//31 92//31 93//31
f 94//32 95//32 96//32
f 97//33 98//33 99//33
f 100//34 101//34 102//34
f 103//35 104//35 105//35
f 106//36 107//36 108//36
f 109//37 110//37 111//37
f 112//38 113//38 114//38
f 115//39 116//39 117//39
f 118//40 119//40 120//40
f 121//41 122//41 123//41
f 124//42 125//42 126//42
f 127//43 128//43 129//43
f 130//44 131//44 132//44
f 133//45 134//45 135//45
f 136//46 137//46 138//46
f 139//47 140//47 141//47
f 142//48 143//48 144//48
f 145//49 146//49 147//49
f 148//50 149//50 150//50
f 151//51 152//51 153//51
f 154//52 155//52 156//52
f 157//53 158//53 159//53
f 160//54 161//54 162//54
f 163//55 164//55 165//55
f 166//56 167//56 168//56
f 169//57 170//57 171//57
f 172//58 173//58 174//58
f 175//59 176//59 177//59
f 178//60 179//60 180//60
f 181//61 182//61 183//61
f 184//62 185//62 186//62
f 187//63 188//63 189//63
f 190//64 191//64 192//64
f 193//65 194//65 195//65
f 196//66 197//66 198//66
f 199//67 200//67 201//67
f 202//68 203//68 204//68
f 205//69 206//69 207//69
f 208//70 209//70 210//70
f 211//71 212//71 213//71
f 214//72 215//72 216//72
f 217//73 218//73 219//73
f 220//74 221//74 222//74
f 223//75 224//75 225//75
f 226//76 227//76 228//76
f 229//77 230//77 231//77
f 232//78 233//78 234//78
f 235//79 236//79 237//79
f 238//80 239//80 240//80
f 241//81 242//81 243//81
f 244//82 245//82 246//82
f 247//83 248//83 249//83
f 250//84 251//84 252//84
f 253//85 254//85 255//85
f 256//86 257//86 258//86
f 259//87 260//87 261//87
f 262//88 263//88 264//88
f 265//89 266//89 267//89
f 268//90 269//90 270//90
f 271//91 272//91 273//91
f 274//92 275//92 276//92
f 277//93 278//93 279//93
f 280//94 281//94 282//94
f 283//95 284//95 285//95
f 286//96 287//96 288//96
f 289//97 290//97 291//97
f 292//98 293//98 294//98
f 295//99 296//99 297//99
f 298//100 299//100 300//100
f 301//101 302//101 303//101
f 304//102 305//102 306//102
f 307//103 308//103 309//103
f 310//104 311//104 312//104
f 313//105 314//105 315//105
f 316//106 317//106 318//106
f 319//107 320//107 321//107
f 322//108 323//108 324//108
f 325//109 326//109 327//109
f 328//110 329//110 330//110
f 331//111 332//111 333//111
f 334//112 335//112 336//112
f 337//113 338//113 339//113
f 340//114 341//114 342//114
