# Authored winter river; Wavefront CCW faces are converted by Godot's OBJ importer.
o river_water
v -2.018668 -0.350000 -72.000000
v -2.369716 -0.350000 -71.000000
v 13.336393 -0.350000 -71.000000
v -2.018668 -0.350000 -72.000000
v 13.336393 -0.350000 -71.000000
v 13.800214 -0.350000 -72.000000
v -2.369716 -0.350000 -71.000000
v -2.684381 -0.350000 -70.000000
v 12.906702 -0.350000 -70.000000
v -2.369716 -0.350000 -71.000000
v 12.906702 -0.350000 -70.000000
v 13.336393 -0.350000 -71.000000
v -2.684381 -0.350000 -70.000000
v -2.962445 -0.350000 -69.000000
v 12.511772 -0.350000 -69.000000
v -2.684381 -0.350000 -70.000000
v 12.511772 -0.350000 -69.000000
v 12.906702 -0.350000 -70.000000
v -2.962445 -0.350000 -69.000000
v -3.204126 -0.350000 -68.000000
v 12.151806 -0.350000 -68.000000
v -2.962445 -0.350000 -69.000000
v 12.151806 -0.350000 -68.000000
v 12.511772 -0.350000 -69.000000
v -3.204126 -0.350000 -68.000000
v -3.410068 -0.350000 -67.000000
v 11.826586 -0.350000 -67.000000
v -3.204126 -0.350000 -68.000000
v 11.826586 -0.350000 -67.000000
v 12.151806 -0.350000 -68.000000
v -3.410068 -0.350000 -67.000000
v -3.581329 -0.350000 -66.000000
v 11.535483 -0.350000 -66.000000
v -3.410068 -0.350000 -67.000000
v 11.535483 -0.350000 -66.000000
v 11.826586 -0.350000 -67.000000
v -3.581329 -0.350000 -66.000000
v -3.719361 -0.350000 -65.000000
v 11.277478 -0.350000 -65.000000
v -3.581329 -0.350000 -66.000000
v 11.277478 -0.350000 -65.000000
v 11.535483 -0.350000 -66.000000
v -3.719361 -0.350000 -65.000000
v -3.825984 -0.350000 -64.000000
v 11.051180 -0.350000 -64.000000
v -3.719361 -0.350000 -65.000000
v 11.051180 -0.350000 -64.000000
v 11.277478 -0.350000 -65.000000
v -3.825984 -0.350000 -64.000000
v -3.903360 -0.350000 -63.000000
v 10.854860 -0.350000 -63.000000
v -3.825984 -0.350000 -64.000000
v 10.854860 -0.350000 -63.000000
v 11.051180 -0.350000 -64.000000
v -3.903360 -0.350000 -63.000000
v -3.953962 -0.350000 -62.000000
v 10.686471 -0.350000 -62.000000
v -3.903360 -0.350000 -63.000000
v 10.686471 -0.350000 -62.000000
v 10.854860 -0.350000 -63.000000
v -3.953962 -0.350000 -62.000000
v -3.980534 -0.350000 -61.000000
v 10.543695 -0.350000 -61.000000
v -3.953962 -0.350000 -62.000000
v 10.543695 -0.350000 -61.000000
v 10.686471 -0.350000 -62.000000
v -3.980534 -0.350000 -61.000000
v -3.986055 -0.350000 -60.000000
v 10.423969 -0.350000 -60.000000
v -3.980534 -0.350000 -61.000000
v 10.423969 -0.350000 -60.000000
v 10.543695 -0.350000 -61.000000
v -3.986055 -0.350000 -60.000000
v -3.973697 -0.350000 -59.000000
v 10.324534 -0.350000 -59.000000
v -3.986055 -0.350000 -60.000000
v 10.324534 -0.350000 -59.000000
v 10.423969 -0.350000 -60.000000
v -3.973697 -0.350000 -59.000000
v -3.946778 -0.350000 -58.000000
v 10.242473 -0.350000 -58.000000
v -3.973697 -0.350000 -59.000000
v 10.242473 -0.350000 -58.000000
v 10.324534 -0.350000 -59.000000
v -3.946778 -0.350000 -58.000000
v -3.908719 -0.350000 -57.000000
v 10.174757 -0.350000 -57.000000
v -3.946778 -0.350000 -58.000000
v 10.174757 -0.350000 -57.000000
v 10.242473 -0.350000 -58.000000
v -3.908719 -0.350000 -57.000000
v -3.862998 -0.350000 -56.000000
v 10.118291 -0.350000 -56.000000
v -3.908719 -0.350000 -57.000000
v 10.118291 -0.350000 -56.000000
v 10.174757 -0.350000 -57.000000
v -3.862998 -0.350000 -56.000000
v -3.813099 -0.350000 -55.000000
v 10.069957 -0.350000 -55.000000
v -3.862998 -0.350000 -56.000000
v 10.069957 -0.350000 -55.000000
v 10.118291 -0.350000 -56.000000
v -3.813099 -0.350000 -55.000000
v -3.762467 -0.350000 -54.000000
v 10.026663 -0.350000 -54.000000
v -3.813099 -0.350000 -55.000000
v 10.026663 -0.350000 -54.000000
v 10.069957 -0.350000 -55.000000
v -3.762467 -0.350000 -54.000000
v -3.714460 -0.350000 -53.000000
v 9.985390 -0.350000 -53.000000
v -3.762467 -0.350000 -54.000000
v 9.985390 -0.350000 -53.000000
v 10.026663 -0.350000 -54.000000
v -3.714460 -0.350000 -53.000000
v -3.672305 -0.350000 -52.000000
v 9.943232 -0.350000 -52.000000
v -3.714460 -0.350000 -53.000000
v 9.943232 -0.350000 -52.000000
v 9.985390 -0.350000 -53.000000
v -3.672305 -0.350000 -52.000000
v -3.639054 -0.350000 -51.000000
v 9.897441 -0.350000 -51.000000
v -3.672305 -0.350000 -52.000000
v 9.897441 -0.350000 -51.000000
v 9.943232 -0.350000 -52.000000
v -3.639054 -0.350000 -51.000000
v -3.617541 -0.350000 -50.000000
v 9.845466 -0.350000 -50.000000
v -3.639054 -0.350000 -51.000000
v 9.845466 -0.350000 -50.000000
v 9.897441 -0.350000 -51.000000
v -3.617541 -0.350000 -50.000000
v -3.610346 -0.350000 -49.000000
v 9.784993 -0.350000 -49.000000
v -3.617541 -0.350000 -50.000000
v 9.784993 -0.350000 -49.000000
v 9.845466 -0.350000 -50.000000
v -3.610346 -0.350000 -49.000000
v -3.619755 -0.350000 -48.000000
v 9.713979 -0.350000 -48.000000
v -3.610346 -0.350000 -49.000000
v 9.713979 -0.350000 -48.000000
v 9.784993 -0.350000 -49.000000
v -6.454702 -0.350000 -32.000000
v -6.733344 -0.350000 -31.000000
v 6.601945 -0.350000 -31.000000
v -6.454702 -0.350000 -32.000000
v 6.601945 -0.350000 -31.000000
v 6.825097 -0.350000 -32.000000
v -6.733344 -0.350000 -31.000000
v -7.006802 -0.350000 -30.000000
v 6.390256 -0.350000 -30.000000
v -6.733344 -0.350000 -31.000000
v 6.390256 -0.350000 -30.000000
v 6.601945 -0.350000 -31.000000
v -7.006802 -0.350000 -30.000000
v -7.271229 -0.350000 -29.000000
v 6.193655 -0.350000 -29.000000
v -7.006802 -0.350000 -30.000000
v 6.193655 -0.350000 -29.000000
v 6.390256 -0.350000 -30.000000
v -7.271229 -0.350000 -29.000000
v -7.522735 -0.350000 -28.000000
v 6.015787 -0.350000 -28.000000
v -7.271229 -0.350000 -29.000000
v 6.015787 -0.350000 -28.000000
v 6.193655 -0.350000 -29.000000
v -7.522735 -0.350000 -28.000000
v -7.757434 -0.350000 -27.000000
v 5.860274 -0.350000 -27.000000
v -7.522735 -0.350000 -28.000000
v 5.860274 -0.350000 -27.000000
v 6.015787 -0.350000 -28.000000
v -7.757434 -0.350000 -27.000000
v -7.971492 -0.350000 -26.000000
v 5.730665 -0.350000 -26.000000
v -7.757434 -0.350000 -27.000000
v 5.730665 -0.350000 -26.000000
v 5.860274 -0.350000 -27.000000
v -7.971492 -0.350000 -26.000000
v -8.161174 -0.350000 -25.000000
v 5.630391 -0.350000 -25.000000
v -7.971492 -0.350000 -26.000000
v 5.630391 -0.350000 -25.000000
v 5.730665 -0.350000 -26.000000
v -8.161174 -0.350000 -25.000000
v -8.322893 -0.350000 -24.000000
v 5.562716 -0.350000 -24.000000
v -8.161174 -0.350000 -25.000000
v 5.562716 -0.350000 -24.000000
v 5.630391 -0.350000 -25.000000
v -8.322893 -0.350000 -24.000000
v -8.453254 -0.350000 -23.000000
v 5.530698 -0.350000 -23.000000
v -8.322893 -0.350000 -24.000000
v 5.530698 -0.350000 -23.000000
v 5.562716 -0.350000 -24.000000
v -8.453254 -0.350000 -23.000000
v -8.549097 -0.350000 -22.000000
v 5.537142 -0.350000 -22.000000
v -8.453254 -0.350000 -23.000000
v 5.537142 -0.350000 -22.000000
v 5.530698 -0.350000 -23.000000
v -8.549097 -0.350000 -22.000000
v -8.607540 -0.350000 -21.000000
v 5.584564 -0.350000 -21.000000
v -8.549097 -0.350000 -22.000000
v 5.584564 -0.350000 -21.000000
v 5.537142 -0.350000 -22.000000
v -8.607540 -0.350000 -21.000000
v -8.626013 -0.350000 -20.000000
v 5.675150 -0.350000 -20.000000
v -8.607540 -0.350000 -21.000000
v 5.675150 -0.350000 -20.000000
v 5.584564 -0.350000 -21.000000
v -8.626013 -0.350000 -20.000000
v -8.602295 -0.350000 -19.000000
v 5.810731 -0.350000 -19.000000
v -8.626013 -0.350000 -20.000000
v 5.810731 -0.350000 -19.000000
v 5.675150 -0.350000 -20.000000
v -8.602295 -0.350000 -19.000000
v -8.534543 -0.350000 -18.000000
v 5.992746 -0.350000 -18.000000
v -8.602295 -0.350000 -19.000000
v 5.992746 -0.350000 -18.000000
v 5.810731 -0.350000 -19.000000
v -8.534543 -0.350000 -18.000000
v -8.421318 -0.350000 -17.000000
v 6.222223 -0.350000 -17.000000
v -8.534543 -0.350000 -18.000000
v 6.222223 -0.350000 -17.000000
v 5.992746 -0.350000 -18.000000
v -8.421318 -0.350000 -17.000000
v -8.261607 -0.350000 -16.000000
v 6.499757 -0.350000 -16.000000
v -8.421318 -0.350000 -17.000000
v 6.499757 -0.350000 -16.000000
v 6.222223 -0.350000 -17.000000
v -8.261607 -0.350000 -16.000000
v -8.054838 -0.350000 -15.000000
v 6.825496 -0.350000 -15.000000
v -8.261607 -0.350000 -16.000000
v 6.825496 -0.350000 -15.000000
v 6.499757 -0.350000 -16.000000
v -8.054838 -0.350000 -15.000000
v -7.800891 -0.350000 -14.000000
v 7.199130 -0.350000 -14.000000
v -8.054838 -0.350000 -15.000000
v 7.199130 -0.350000 -14.000000
v 6.825496 -0.350000 -15.000000
v -7.800891 -0.350000 -14.000000
v -7.500107 -0.350000 -13.000000
v 7.619891 -0.350000 -13.000000
v -7.800891 -0.350000 -14.000000
v 7.619891 -0.350000 -13.000000
v 7.199130 -0.350000 -14.000000
v -7.500107 -0.350000 -13.000000
v -7.153284 -0.350000 -12.000000
v 8.086545 -0.350000 -12.000000
v -7.500107 -0.350000 -13.000000
v 8.086545 -0.350000 -12.000000
v 7.619891 -0.350000 -13.000000
v -7.153284 -0.350000 -12.000000
v -6.761676 -0.350000 -11.000000
v 8.597410 -0.350000 -11.000000
v -7.153284 -0.350000 -12.000000
v 8.597410 -0.350000 -11.000000
v 8.086545 -0.350000 -12.000000
v -6.761676 -0.350000 -11.000000
v -6.326981 -0.350000 -10.000000
v 9.150357 -0.350000 -10.000000
v -6.761676 -0.350000 -11.000000
v 9.150357 -0.350000 -10.000000
v 8.597410 -0.350000 -11.000000
v -6.326981 -0.350000 -10.000000
v -5.851327 -0.350000 -9.000000
v 9.742834 -0.350000 -9.000000
v -6.326981 -0.350000 -10.000000
v 9.742834 -0.350000 -9.000000
v 9.150357 -0.350000 -10.000000
v -5.851327 -0.350000 -9.000000
v -5.337251 -0.350000 -8.000000
v 10.371882 -0.350000 -8.000000
v -5.851327 -0.350000 -9.000000
v 10.371882 -0.350000 -8.000000
v 9.742834 -0.350000 -9.000000
v 4.984669 -0.350000 8.000000
v 5.540762 -0.350000 9.000000
v 22.567731 -0.350000 9.000000
v 4.984669 -0.350000 8.000000
v 22.567731 -0.350000 9.000000
v 21.980701 -0.350000 8.000000
v 5.540762 -0.350000 9.000000
v 6.062862 -0.350000 10.000000
v 23.113762 -0.350000 10.000000
v 5.540762 -0.350000 9.000000
v 23.113762 -0.350000 10.000000
v 22.567731 -0.350000 9.000000
v 6.062862 -0.350000 10.000000
v 6.548265 -0.350000 11.000000
v 23.616001 -0.350000 11.000000
v 6.062862 -0.350000 10.000000
v 23.616001 -0.350000 11.000000
v 23.113762 -0.350000 10.000000
v 6.548265 -0.350000 11.000000
v 6.994659 -0.350000 12.000000
v 24.072079 -0.350000 12.000000
v 6.548265 -0.350000 11.000000
v 24.072079 -0.350000 12.000000
v 23.616001 -0.350000 11.000000
v 6.994659 -0.350000 12.000000
v 7.400150 -0.350000 13.000000
v 24.480066 -0.350000 13.000000
v 6.994659 -0.350000 12.000000
v 24.480066 -0.350000 13.000000
v 24.072079 -0.350000 12.000000
v 7.400150 -0.350000 13.000000
v 7.763274 -0.350000 14.000000
v 24.838487 -0.350000 14.000000
v 7.400150 -0.350000 13.000000
v 24.838487 -0.350000 14.000000
v 24.480066 -0.350000 13.000000
v 7.763274 -0.350000 14.000000
v 8.083006 -0.350000 15.000000
v 25.146336 -0.350000 15.000000
v 7.763274 -0.350000 14.000000
v 25.146336 -0.350000 15.000000
v 24.838487 -0.350000 14.000000
v 8.083006 -0.350000 15.000000
v 8.358771 -0.350000 16.000000
v 25.403079 -0.350000 16.000000
v 8.083006 -0.350000 15.000000
v 25.403079 -0.350000 16.000000
v 25.146336 -0.350000 15.000000
v 8.358771 -0.350000 16.000000
v 8.590438 -0.350000 17.000000
v 25.608657 -0.350000 17.000000
v 8.358771 -0.350000 16.000000
v 25.608657 -0.350000 17.000000
v 25.403079 -0.350000 16.000000
v 8.590438 -0.350000 17.000000
v 8.778322 -0.350000 18.000000
v 25.763475 -0.350000 18.000000
v 8.590438 -0.350000 17.000000
v 25.763475 -0.350000 18.000000
v 25.608657 -0.350000 17.000000
v 8.778322 -0.350000 18.000000
v 8.923167 -0.350000 19.000000
v 25.868397 -0.350000 19.000000
v 8.778322 -0.350000 18.000000
v 25.868397 -0.350000 19.000000
v 25.763475 -0.350000 18.000000
v 8.923167 -0.350000 19.000000
v 9.026134 -0.350000 20.000000
v 25.924729 -0.350000 20.000000
v 8.923167 -0.350000 19.000000
v 25.924729 -0.350000 20.000000
v 25.868397 -0.350000 19.000000
v 9.026134 -0.350000 20.000000
v 9.088781 -0.350000 21.000000
v 25.934196 -0.350000 21.000000
v 9.026134 -0.350000 20.000000
v 25.934196 -0.350000 21.000000
v 25.924729 -0.350000 20.000000
v 9.088781 -0.350000 21.000000
v 9.113037 -0.350000 22.000000
v 25.898918 -0.350000 22.000000
v 9.088781 -0.350000 21.000000
v 25.898918 -0.350000 22.000000
v 25.934196 -0.350000 21.000000
v 9.113037 -0.350000 22.000000
v 9.101174 -0.350000 23.000000
v 25.821382 -0.350000 23.000000
v 9.113037 -0.350000 22.000000
v 25.821382 -0.350000 23.000000
v 25.898918 -0.350000 22.000000
v 9.101174 -0.350000 23.000000
v 9.055772 -0.350000 24.000000
v 25.704404 -0.350000 24.000000
v 9.101174 -0.350000 23.000000
v 25.704404 -0.350000 24.000000
v 25.821382 -0.350000 23.000000
v 9.055772 -0.350000 24.000000
v 8.979686 -0.350000 25.000000
v 25.551097 -0.350000 25.000000
v 9.055772 -0.350000 24.000000
v 25.551097 -0.350000 25.000000
v 25.704404 -0.350000 24.000000
v 8.979686 -0.350000 25.000000
v 8.876002 -0.350000 26.000000
v 25.364824 -0.350000 26.000000
v 8.979686 -0.350000 25.000000
v 25.364824 -0.350000 26.000000
v 25.551097 -0.350000 25.000000
v 8.876002 -0.350000 26.000000
v 8.747999 -0.350000 27.000000
v 25.149161 -0.350000 27.000000
v 8.876002 -0.350000 26.000000
v 25.149161 -0.350000 27.000000
v 25.364824 -0.350000 26.000000
v 8.747999 -0.350000 27.000000
v 8.599100 -0.350000 28.000000
v 24.907848 -0.350000 28.000000
v 8.747999 -0.350000 27.000000
v 24.907848 -0.350000 28.000000
v 25.149161 -0.350000 27.000000
v 8.599100 -0.350000 28.000000
v 8.432831 -0.350000 29.000000
v 24.644744 -0.350000 29.000000
v 8.599100 -0.350000 28.000000
v 24.644744 -0.350000 29.000000
v 24.907848 -0.350000 28.000000
v 8.432831 -0.350000 29.000000
v 8.252772 -0.350000 30.000000
v 24.363775 -0.350000 30.000000
v 8.432831 -0.350000 29.000000
v 24.363775 -0.350000 30.000000
v 24.644744 -0.350000 29.000000
v 8.252772 -0.350000 30.000000
v 8.062509 -0.350000 31.000000
v 24.068891 -0.350000 31.000000
v 8.252772 -0.350000 30.000000
v 24.068891 -0.350000 31.000000
v 24.363775 -0.350000 30.000000
v 8.062509 -0.350000 31.000000
v 7.865588 -0.350000 32.000000
v 23.764016 -0.350000 32.000000
v 8.062509 -0.350000 31.000000
v 23.764016 -0.350000 32.000000
v 24.068891 -0.350000 31.000000
v 5.925657 -0.350000 48.000000
v 5.936004 -0.350000 49.000000
v 19.889349 -0.350000 49.000000
v 5.925657 -0.350000 48.000000
v 19.889349 -0.350000 49.000000
v 19.980119 -0.350000 48.000000
v 5.936004 -0.350000 49.000000
v 5.957896 -0.350000 50.000000
v 19.814180 -0.350000 50.000000
v 5.936004 -0.350000 49.000000
v 19.814180 -0.350000 50.000000
v 19.889349 -0.350000 49.000000
v 5.957896 -0.350000 50.000000
v 5.988993 -0.350000 51.000000
v 19.752620 -0.350000 51.000000
v 5.957896 -0.350000 50.000000
v 19.752620 -0.350000 51.000000
v 19.814180 -0.350000 50.000000
v 5.988993 -0.350000 51.000000
v 6.026683 -0.350000 52.000000
v 19.702390 -0.350000 52.000000
v 5.988993 -0.350000 51.000000
v 19.702390 -0.350000 52.000000
v 19.752620 -0.350000 51.000000
v 6.026683 -0.350000 52.000000
v 6.068114 -0.350000 53.000000
v 19.660955 -0.350000 53.000000
v 6.026683 -0.350000 52.000000
v 19.660955 -0.350000 53.000000
v 19.702390 -0.350000 52.000000
v 6.068114 -0.350000 53.000000
v 6.110238 -0.350000 54.000000
v 19.625566 -0.350000 54.000000
v 6.068114 -0.350000 53.000000
v 19.625566 -0.350000 54.000000
v 19.660955 -0.350000 53.000000
v 6.110238 -0.350000 54.000000
v 6.149848 -0.350000 55.000000
v 19.593294 -0.350000 55.000000
v 6.110238 -0.350000 54.000000
v 19.593294 -0.350000 55.000000
v 19.625566 -0.350000 54.000000
v 6.149848 -0.350000 55.000000
v 6.183627 -0.350000 56.000000
v 19.561080 -0.350000 56.000000
v 6.149848 -0.350000 55.000000
v 19.561080 -0.350000 56.000000
v 19.593294 -0.350000 55.000000
v 6.183627 -0.350000 56.000000
v 6.208187 -0.350000 57.000000
v 19.525775 -0.350000 57.000000
v 6.183627 -0.350000 56.000000
v 19.525775 -0.350000 57.000000
v 19.561080 -0.350000 56.000000
v 6.208187 -0.350000 57.000000
v 6.220119 -0.350000 58.000000
v 19.484185 -0.350000 58.000000
v 6.208187 -0.350000 57.000000
v 19.484185 -0.350000 58.000000
v 19.525775 -0.350000 57.000000
v 6.220119 -0.350000 58.000000
v 6.216042 -0.350000 59.000000
v 19.433120 -0.350000 59.000000
v 6.220119 -0.350000 58.000000
v 19.433120 -0.350000 59.000000
v 19.484185 -0.350000 58.000000
v 6.216042 -0.350000 59.000000
v 6.192645 -0.350000 60.000000
v 19.369441 -0.350000 60.000000
v 6.216042 -0.350000 59.000000
v 19.369441 -0.350000 60.000000
v 19.433120 -0.350000 59.000000
v 6.192645 -0.350000 60.000000
v 6.146738 -0.350000 61.000000
v 19.290101 -0.350000 61.000000
v 6.192645 -0.350000 60.000000
v 19.290101 -0.350000 61.000000
v 19.369441 -0.350000 60.000000
v 6.146738 -0.350000 61.000000
v 6.075295 -0.350000 62.000000
v 19.192195 -0.350000 62.000000
v 6.146738 -0.350000 61.000000
v 19.192195 -0.350000 62.000000
v 19.290101 -0.350000 61.000000
v 6.075295 -0.350000 62.000000
v 5.975500 -0.350000 63.000000
v 19.073001 -0.350000 63.000000
v 6.075295 -0.350000 62.000000
v 19.073001 -0.350000 63.000000
v 19.192195 -0.350000 62.000000
v 5.975500 -0.350000 63.000000
v 5.844783 -0.350000 64.000000
v 18.930020 -0.350000 64.000000
v 5.975500 -0.350000 63.000000
v 18.930020 -0.350000 64.000000
v 19.073001 -0.350000 63.000000
v 5.844783 -0.350000 64.000000
v 5.680865 -0.350000 65.000000
v 18.761018 -0.350000 65.000000
v 5.844783 -0.350000 64.000000
v 18.761018 -0.350000 65.000000
v 18.930020 -0.350000 64.000000
v 5.680865 -0.350000 65.000000
v 5.481790 -0.350000 66.000000
v 18.564056 -0.350000 66.000000
v 5.680865 -0.350000 65.000000
v 18.564056 -0.350000 66.000000
v 18.761018 -0.350000 65.000000
v 5.481790 -0.350000 66.000000
v 5.245957 -0.350000 67.000000
v 18.337525 -0.350000 67.000000
v 5.481790 -0.350000 66.000000
v 18.337525 -0.350000 67.000000
v 18.564056 -0.350000 66.000000
v 5.245957 -0.350000 67.000000
v 4.972146 -0.350000 68.000000
v 18.080174 -0.350000 68.000000
v 5.245957 -0.350000 67.000000
v 18.080174 -0.350000 68.000000
v 18.337525 -0.350000 67.000000
v 4.972146 -0.350000 68.000000
v 4.659545 -0.350000 69.000000
v 17.791128 -0.350000 69.000000
v 4.972146 -0.350000 68.000000
v 17.791128 -0.350000 69.000000
v 18.080174 -0.350000 68.000000
v 4.659545 -0.350000 69.000000
v 4.307764 -0.350000 70.000000
v 17.469915 -0.350000 70.000000
v 4.659545 -0.350000 69.000000
v 17.469915 -0.350000 70.000000
v 17.791128 -0.350000 69.000000
v 4.307764 -0.350000 70.000000
v 3.916850 -0.350000 71.000000
v 17.116472 -0.350000 71.000000
v 4.307764 -0.350000 70.000000
v 17.116472 -0.350000 71.000000
v 17.469915 -0.350000 70.000000
v 3.916850 -0.350000 71.000000
v 3.487298 -0.350000 72.000000
v 16.731157 -0.350000 72.000000
v 3.916850 -0.350000 71.000000
v 16.731157 -0.350000 72.000000
v 17.116472 -0.350000 71.000000
vn 0.000000 1.000000 -0.000000
vn 0.000000 1.000000 0.000000
vn 0.000000 1.000000 -0.000000
vn 0.000000 1.000000 0.000000
vn 0.000000 1.000000 -0.000000
vn 0.000000 1.000000 0.000000
vn 0.000000 1.000000 -0.000000
vn 0.000000 1.000000 0.000000
vn 0.000000 1.000000 -0.000000
vn 0.000000 1.000000 0.000000
vn 0.000000 1.000000 -0.000000
vn 0.000000 1.000000 0.000000
vn 0.000000 1.000000 -0.000000
vn 0.000000 1.000000 0.000000
vn 0.000000 1.000000 -0.000000
vn 0.000000 1.000000 0.000000
vn 0.000000 1.000000 -0.000000
vn 0.000000 1.000000 0.000000
vn 0.000000 1.000000 -0.000000
vn 0.000000 1.000000 0.000000
vn 0.000000 1.000000 -0.000000
vn 0.000000 1.000000 0.000000
vn 0.000000 1.000000 -0.000000
vn 0.000000 1.000000 0.000000
vn 0.000000 1.000000 0.000000
vn 0.000000 1.000000 0.000000
vn 0.000000 1.000000 0.000000
vn 0.000000 1.000000 0.000000
vn 0.000000 1.000000 0.000000
vn 0.000000 1.000000 0.000000
vn 0.000000 1.000000 0.000000
vn 0.000000 1.000000 0.000000
vn 0.000000 1.000000 0.000000
vn 0.000000 1.000000 0.000000
vn 0.000000 1.000000 0.000000
vn 0.000000 1.000000 0.000000
vn 0.000000 1.000000 0.000000
vn 0.000000 1.000000 0.000000
vn 0.000000 1.000000 0.000000
vn 0.000000 1.000000 0.000000
vn 0.000000 1.000000 0.000000
vn 0.000000 1.000000 0.000000
vn 0.000000 1.000000 0.000000
vn 0.000000 1.000000 0.000000
vn 0.000000 1.000000 0.000000
vn 0.000000 1.000000 0.000000
vn 0.000000 1.000000 -0.000000
vn 0.000000 1.000000 0.000000
vn 0.000000 1.000000 -0.000000
vn 0.000000 1.000000 0.000000
vn 0.000000 1.000000 -0.000000
vn 0.000000 1.000000 0.000000
vn 0.000000 1.000000 -0.000000
vn 0.000000 1.000000 0.000000
vn 0.000000 1.000000 -0.000000
vn 0.000000 1.000000 0.000000
vn 0.000000 1.000000 -0.000000
vn 0.000000 1.000000 0.000000
vn 0.000000 1.000000 -0.000000
vn 0.000000 1.000000 0.000000
vn 0.000000 1.000000 -0.000000
vn 0.000000 1.000000 0.000000
vn 0.000000 1.000000 -0.000000
vn 0.000000 1.000000 0.000000
vn 0.000000 1.000000 -0.000000
vn 0.000000 1.000000 0.000000
vn 0.000000 1.000000 -0.000000
vn 0.000000 1.000000 0.000000
vn 0.000000 1.000000 -0.000000
vn 0.000000 1.000000 0.000000
vn 0.000000 1.000000 -0.000000
vn 0.000000 1.000000 0.000000
vn 0.000000 1.000000 0.000000
vn 0.000000 1.000000 0.000000
vn 0.000000 1.000000 0.000000
vn 0.000000 1.000000 0.000000
vn 0.000000 1.000000 0.000000
vn 0.000000 1.000000 0.000000
vn 0.000000 1.000000 0.000000
vn 0.000000 1.000000 0.000000
vn 0.000000 1.000000 0.000000
vn 0.000000 1.000000 0.000000
vn 0.000000 1.000000 0.000000
vn 0.000000 1.000000 0.000000
vn 0.000000 1.000000 0.000000
vn 0.000000 1.000000 0.000000
vn 0.000000 1.000000 0.000000
vn 0.000000 1.000000 0.000000
vn 0.000000 1.000000 0.000000
vn 0.000000 1.000000 0.000000
vn 0.000000 1.000000 0.000000
vn 0.000000 1.000000 0.000000
vn 0.000000 1.000000 0.000000
vn 0.000000 1.000000 0.000000
vn 0.000000 1.000000 0.000000
vn 0.000000 1.000000 0.000000
vn 0.000000 1.000000 0.000000
vn 0.000000 1.000000 0.000000
vn 0.000000 1.000000 0.000000
vn 0.000000 1.000000 0.000000
vn 0.000000 1.000000 0.000000
vn 0.000000 1.000000 0.000000
vn 0.000000 1.000000 0.000000
vn 0.000000 1.000000 0.000000
vn 0.000000 1.000000 0.000000
vn 0.000000 1.000000 0.000000
vn 0.000000 1.000000 0.000000
vn 0.000000 1.000000 0.000000
vn 0.000000 1.000000 0.000000
vn 0.000000 1.000000 0.000000
vn 0.000000 1.000000 0.000000
vn 0.000000 1.000000 0.000000
vn 0.000000 1.000000 0.000000
vn 0.000000 1.000000 0.000000
vn 0.000000 1.000000 0.000000
vn 0.000000 1.000000 0.000000
vn 0.000000 1.000000 0.000000
vn 0.000000 1.000000 0.000000
vn 0.000000 1.000000 0.000000
vn 0.000000 1.000000 0.000000
vn 0.000000 1.000000 0.000000
vn 0.000000 1.000000 0.000000
vn 0.000000 1.000000 0.000000
vn 0.000000 1.000000 0.000000
vn 0.000000 1.000000 -0.000000
vn 0.000000 1.000000 0.000000
vn 0.000000 1.000000 -0.000000
vn 0.000000 1.000000 0.000000
vn 0.000000 1.000000 -0.000000
vn 0.000000 1.000000 0.000000
vn 0.000000 1.000000 -0.000000
vn 0.000000 1.000000 0.000000
vn 0.000000 1.000000 -0.000000
vn 0.000000 1.000000 0.000000
vn 0.000000 1.000000 -0.000000
vn 0.000000 1.000000 0.000000
vn 0.000000 1.000000 -0.000000
vn 0.000000 1.000000 0.000000
vn 0.000000 1.000000 -0.000000
vn 0.000000 1.000000 0.000000
vn 0.000000 1.000000 -0.000000
vn 0.000000 1.000000 0.000000
vn 0.000000 1.000000 -0.000000
vn 0.000000 1.000000 0.000000
vn 0.000000 1.000000 0.000000
vn 0.000000 1.000000 0.000000
vn 0.000000 1.000000 0.000000
vn 0.000000 1.000000 0.000000
vn 0.000000 1.000000 0.000000
vn 0.000000 1.000000 0.000000
vn 0.000000 1.000000 0.000000
vn 0.000000 1.000000 0.000000
vn 0.000000 1.000000 0.000000
vn 0.000000 1.000000 0.000000
vn 0.000000 1.000000 0.000000
vn 0.000000 1.000000 0.000000
vn 0.000000 1.000000 0.000000
vn 0.000000 1.000000 0.000000
vn 0.000000 1.000000 0.000000
vn 0.000000 1.000000 0.000000
vn 0.000000 1.000000 0.000000
vn 0.000000 1.000000 0.000000
vn 0.000000 1.000000 0.000000
vn 0.000000 1.000000 0.000000
vn 0.000000 1.000000 -0.000000
vn 0.000000 1.000000 0.000000
vn 0.000000 1.000000 -0.000000
vn 0.000000 1.000000 0.000000
vn 0.000000 1.000000 -0.000000
vn 0.000000 1.000000 0.000000
vn 0.000000 1.000000 -0.000000
vn 0.000000 1.000000 0.000000
vn 0.000000 1.000000 -0.000000
vn 0.000000 1.000000 0.000000
vn 0.000000 1.000000 -0.000000
vn 0.000000 1.000000 0.000000
vn 0.000000 1.000000 -0.000000
vn 0.000000 1.000000 0.000000
vn 0.000000 1.000000 -0.000000
vn 0.000000 1.000000 0.000000
vn 0.000000 1.000000 -0.000000
vn 0.000000 1.000000 0.000000
vn 0.000000 1.000000 -0.000000
vn 0.000000 1.000000 0.000000
vn 0.000000 1.000000 -0.000000
vn 0.000000 1.000000 0.000000
vn 0.000000 1.000000 -0.000000
vn 0.000000 1.000000 0.000000
vn 0.000000 1.000000 -0.000000
vn 0.000000 1.000000 0.000000
vn 0.000000 1.000000 -0.000000
vn 0.000000 1.000000 0.000000
f 1//1 2//1 3//1
f 4//2 5//2 6//2
f 7//3 8//3 9//3
f 10//4 11//4 12//4
f 13//5 14//5 15//5
f 16//6 17//6 18//6
f 19//7 20//7 21//7
f 22//8 23//8 24//8
f 25//9 26//9 27//9
f 28//10 29//10 30//10
f 31//11 32//11 33//11
f 34//12 35//12 36//12
f 37//13 38//13 39//13
f 40//14 41//14 42//14
f 43//15 44//15 45//15
f 46//16 47//16 48//16
f 49//17 50//17 51//17
f 52//18 53//18 54//18
f 55//19 56//19 57//19
f 58//20 59//20 60//20
f 61//21 62//21 63//21
f 64//22 65//22 66//22
f 67//23 68//23 69//23
f 70//24 71//24 72//24
f 73//25 74//25 75//25
f 76//26 77//26 78//26
f 79//27 80//27 81//27
f 82//28 83//28 84//28
f 85//29 86//29 87//29
f 88//30 89//30 90//30
f 91//31 92//31 93//31
f 94//32 95//32 96//32
f 97//33 98//33 99//33
f 100//34 101//34 102//34
f 103//35 104//35 105//35
f 106//36 107//36 108//36
f 109//37 110//37 111//37
f 112//38 113//38 114//38
f 115//39 116//39 117//39
f 118//40 119//40 120//40
f 121//41 122//41 123//41
f 124//42 125//42 126//42
f 127//43 128//43 129//43
f 130//44 131//44 132//44
f 133//45 134//45 135//45
f 136//46 137//46 138//46
f 139//47 140//47 141//47
f 142//48 143//48 144//48
f 145//49 146//49 147//49
f 148//50 149//50 150//50
f 151//51 152//51 153//51
f 154//52 155//52 156//52
f 157//53 158//53 159//53
f 160//54 161//54 162//54
f 163//55 164//55 165//55
f 166//56 167//56 168//56
f 169//57 170//57 171//57
f 172//58 173//58 174//58
f 175//59 176//59 177//59
f 178//60 179//60 180//60
f 181//61 182//61 183//61
f 184//62 185//62 186//62
f 187//63 188//63 189//63
f 190//64 191//64 192//64
f 193//65 194//65 195//65
f 196//66 197//66 198//66
f 199//67 200//67 201//67
f 202//68 203//68 204//68
f 205//69 206//69 207//69
f 208//70 209//70 210//70
f 211//71 212//71 213//71
f 214//72 215//72 216//72
f 217//73 218//73 219//73
f 220//74 221//74 222//74
f 223//75 224//75 225//75
f 226//76 227//76 228//76
f 229//77 230//77 231//77
f 232//78 233//78 234//78
f 235//79 236//79 237//79
f 238//80 239//80 240//80
f 241//81 242//81 243//81
f 244//82 245//82 246//82
f 247//83 248//83 249//83
f 250//84 251//84 252//84
f 253//85 254//85 255//85
f 256//86 257//86 258//86
f 259//87 260//87 261//87
f 262//88 263//88 264//88
f 265//89 266//89 267//89
f 268//90 269//90 270//90
f 271//91 272//91 273//91
f 274//92 275//92 276//92
f 277//93 278//93 279//93
f 280//94 281//94 282//94
f 283//95 284//95 285//95
f 286//96 287//96 288//96
f 289//97 290//97 291//97
f 292//98 293//98 294//98
f 295//99 296//99 297//99
f 298//100 299//100 300//100
f 301//101 302//101 303//101
f 304//102 305//102 306//102
f 307//103 308//103 309//103
f 310//104 311//104 312//104
f 313//105 314//105 315//105
f 316//106 317//106 318//106
f 319//107 320//107 321//107
f 322//108 323//108 324//108
f 325//109 326//109 327//109
f 328//110 329//110 330//110
f 331//111 332//111 333//111
f 334//112 335//112 336//112
f 337//113 338//113 339//113
f 340//114 341//114 342//114
f 343//115 344//115 345//115
f 346//116 347//116 348//116
f 349//117 350//117 351//117
f 352//118 353//118 354//118
f 355//119 356//119 357//119
f 358//120 359//120 360//120
f 361//121 362//121 363//121
f 364//122 365//122 366//122
f 367//123 368//123 369//123
f 370//124 371//124 372//124
f 373//125 374//125 375//125
f 376//126 377//126 378//126
f 379//127 380//127 381//127
f 382//128 383//128 384//128
f 385//129 386//129 387//129
f 388//130 389//130 390//130
f 391//131 392//131 393//131
f 394//132 395//132 396//132
f 397//133 398//133 399//133
f 400//134 401//134 402//134
f 403//135 404//135 405//135
f 406//136 407//136 408//136
f 409//137 410//137 411//137
f 412//138 413//138 414//138
f 415//139 416//139 417//139
f 418//140 419//140 420//140
f 421//141 422//141 423//141
f 424//142 425//142 426//142
f 427//143 428//143 429//143
f 430//144 431//144 432//144
f 433//145 434//145 435//145
f 436//146 437//146 438//146
f 439//147 440//147 441//147
f 442//148 443//148 444//148
f 445//149 446//149 447//149
f 448//150 449//150 450//150
f 451//151 452//151 453//151
f 454//152 455//152 456//152
f 457//153 458//153 459//153
f 460//154 461//154 462//154
f 463//155 464//155 465//155
f 466//156 467//156 468//156
f 469//157 470//157 471//157
f 472//158 473//158 474//158
f 475//159 476//159 477//159
f 478//160 479//160 480//160
f 481//161 482//161 483//161
f 484//162 485//162 486//162
f 487//163 488//163 489//163
f 490//164 491//164 492//164
f 493//165 494//165 495//165
f 496//166 497//166 498//166
f 499//167 500//167 501//167
f 502//168 503//168 504//168
f 505//169 506//169 507//169
f 508//170 509//170 510//170
f 511//171 512//171 513//171
f 514//172 515//172 516//172
f 517//173 518//173 519//173
f 520//174 521//174 522//174
f 523//175 524//175 525//175
f 526//176 527//176 528//176
f 529//177 530//177 531//177
f 532//178 533//178 534//178
f 535//179 536//179 537//179
f 538//180 539//180 540//180
f 541//181 542//181 543//181
f 544//182 545//182 546//182
f 547//183 548//183 549//183
f 550//184 551//184 552//184
f 553//185 554//185 555//185
f 556//186 557//186 558//186
f 559//187 560//187 561//187
f 562//188 563//188 564//188
f 565//189 566//189 567//189
f 568//190 569//190 570//190
f 571//191 572//191 573//191
f 574//192 575//192 576//192
