# River banks: shared samples, no opaque ground below the river.
o SnowfieldBanks
v -128.000000 -0.005000 -72.000000
v -3.478668 -0.005000 -72.000000
v -128.000000 -0.005000 -71.000000
v -3.829716 -0.005000 -71.000000
v 15.260214 -0.005000 -72.000000
v 128.000000 -0.005000 -72.000000
v 14.796393 -0.005000 -71.000000
v 128.000000 -0.005000 -71.000000
v -128.000000 -0.005000 -71.000000
v -3.829716 -0.005000 -71.000000
v -128.000000 -0.005000 -70.000000
v -4.144381 -0.005000 -70.000000
v 14.796393 -0.005000 -71.000000
v 128.000000 -0.005000 -71.000000
v 14.366702 -0.005000 -70.000000
v 128.000000 -0.005000 -70.000000
v -128.000000 -0.005000 -70.000000
v -4.144381 -0.005000 -70.000000
v -128.000000 -0.005000 -69.000000
v -4.422445 -0.005000 -69.000000
v 14.366702 -0.005000 -70.000000
v 128.000000 -0.005000 -70.000000
v 13.971772 -0.005000 -69.000000
v 128.000000 -0.005000 -69.000000
v -128.000000 -0.005000 -69.000000
v -4.422445 -0.005000 -69.000000
v -128.000000 -0.005000 -68.000000
v -4.664126 -0.005000 -68.000000
v 13.971772 -0.005000 -69.000000
v 128.000000 -0.005000 -69.000000
v 13.611806 -0.005000 -68.000000
v 128.000000 -0.005000 -68.000000
v -128.000000 -0.005000 -68.000000
v -4.664126 -0.005000 -68.000000
v -128.000000 -0.005000 -67.000000
v -4.870068 -0.005000 -67.000000
v 13.611806 -0.005000 -68.000000
v 128.000000 -0.005000 -68.000000
v 13.286586 -0.005000 -67.000000
v 128.000000 -0.005000 -67.000000
v -128.000000 -0.005000 -67.000000
v -4.870068 -0.005000 -67.000000
v -128.000000 -0.005000 -66.000000
v -5.041329 -0.005000 -66.000000
v 13.286586 -0.005000 -67.000000
v 128.000000 -0.005000 -67.000000
v 12.995483 -0.005000 -66.000000
v 128.000000 -0.005000 -66.000000
v -128.000000 -0.005000 -66.000000
v -5.041329 -0.005000 -66.000000
v -128.000000 -0.005000 -65.000000
v -5.179361 -0.005000 -65.000000
v 12.995483 -0.005000 -66.000000
v 128.000000 -0.005000 -66.000000
v 12.737478 -0.005000 -65.000000
v 128.000000 -0.005000 -65.000000
v -128.000000 -0.005000 -65.000000
v -5.179361 -0.005000 -65.000000
v -128.000000 -0.005000 -64.000000
v -5.285984 -0.005000 -64.000000
v 12.737478 -0.005000 -65.000000
v 128.000000 -0.005000 -65.000000
v 12.511180 -0.005000 -64.000000
v 128.000000 -0.005000 -64.000000
v -128.000000 -0.005000 -64.000000
v -5.285984 -0.005000 -64.000000
v -128.000000 -0.005000 -63.000000
v -5.363360 -0.005000 -63.000000
v 12.511180 -0.005000 -64.000000
v 128.000000 -0.005000 -64.000000
v 12.314860 -0.005000 -63.000000
v 128.000000 -0.005000 -63.000000
v -128.000000 -0.005000 -63.000000
v -5.363360 -0.005000 -63.000000
v -128.000000 -0.005000 -62.000000
v -5.413962 -0.005000 -62.000000
v 12.314860 -0.005000 -63.000000
v 128.000000 -0.005000 -63.000000
v 12.146471 -0.005000 -62.000000
v 128.000000 -0.005000 -62.000000
v -128.000000 -0.005000 -62.000000
v -5.413962 -0.005000 -62.000000
v -128.000000 -0.005000 -61.000000
v -5.440534 -0.005000 -61.000000
v 12.146471 -0.005000 -62.000000
v 128.000000 -0.005000 -62.000000
v 12.003695 -0.005000 -61.000000
v 128.000000 -0.005000 -61.000000
v -128.000000 -0.005000 -61.000000
v -5.440534 -0.005000 -61.000000
v -128.000000 -0.005000 -60.000000
v -5.446055 -0.005000 -60.000000
v 12.003695 -0.005000 -61.000000
v 128.000000 -0.005000 -61.000000
v 11.883969 -0.005000 -60.000000
v 128.000000 -0.005000 -60.000000
v -128.000000 -0.005000 -60.000000
v -5.446055 -0.005000 -60.000000
v -128.000000 -0.005000 -59.000000
v -5.433697 -0.005000 -59.000000
v 11.883969 -0.005000 -60.000000
v 128.000000 -0.005000 -60.000000
v 11.784534 -0.005000 -59.000000
v 128.000000 -0.005000 -59.000000
v -128.000000 -0.005000 -59.000000
v -5.433697 -0.005000 -59.000000
v -128.000000 -0.005000 -58.000000
v -5.406778 -0.005000 -58.000000
v 11.784534 -0.005000 -59.000000
v 128.000000 -0.005000 -59.000000
v 11.702473 -0.005000 -58.000000
v 128.000000 -0.005000 -58.000000
v -128.000000 -0.005000 -58.000000
v -5.406778 -0.005000 -58.000000
v -128.000000 -0.005000 -57.000000
v -5.368719 -0.005000 -57.000000
v 11.702473 -0.005000 -58.000000
v 128.000000 -0.005000 -58.000000
v 11.634757 -0.005000 -57.000000
v 128.000000 -0.005000 -57.000000
v -128.000000 -0.005000 -57.000000
v -5.368719 -0.005000 -57.000000
v -128.000000 -0.005000 -56.000000
v -5.322998 -0.005000 -56.000000
v 11.634757 -0.005000 -57.000000
v 128.000000 -0.005000 -57.000000
v 11.578291 -0.005000 -56.000000
v 128.000000 -0.005000 -56.000000
v -128.000000 -0.005000 -56.000000
v -5.322998 -0.005000 -56.000000
v -128.000000 -0.005000 -55.000000
v -5.273099 -0.005000 -55.000000
v 11.578291 -0.005000 -56.000000
v 128.000000 -0.005000 -56.000000
v 11.529957 -0.005000 -55.000000
v 128.000000 -0.005000 -55.000000
v -128.000000 -0.005000 -55.000000
v -5.273099 -0.005000 -55.000000
v -128.000000 -0.005000 -54.000000
v -5.222467 -0.005000 -54.000000
v 11.529957 -0.005000 -55.000000
v 128.000000 -0.005000 -55.000000
v 11.486663 -0.005000 -54.000000
v 128.000000 -0.005000 -54.000000
v -128.000000 -0.005000 -54.000000
v -5.222467 -0.005000 -54.000000
v -128.000000 -0.005000 -53.000000
v -5.174460 -0.005000 -53.000000
v 11.486663 -0.005000 -54.000000
v 128.000000 -0.005000 -54.000000
v 11.445390 -0.005000 -53.000000
v 128.000000 -0.005000 -53.000000
v -128.000000 -0.005000 -53.000000
v -5.174460 -0.005000 -53.000000
v -128.000000 -0.005000 -52.000000
v -5.132305 -0.005000 -52.000000
v 11.445390 -0.005000 -53.000000
v 128.000000 -0.005000 -53.000000
v 11.403232 -0.005000 -52.000000
v 128.000000 -0.005000 -52.000000
v -128.000000 -0.005000 -52.000000
v -5.132305 -0.005000 -52.000000
v -128.000000 -0.005000 -51.000000
v -5.099054 -0.005000 -51.000000
v 11.403232 -0.005000 -52.000000
v 128.000000 -0.005000 -52.000000
v 11.357441 -0.005000 -51.000000
v 128.000000 -0.005000 -51.000000
v -128.000000 -0.005000 -51.000000
v -5.099054 -0.005000 -51.000000
v -128.000000 -0.005000 -50.000000
v -5.077541 -0.005000 -50.000000
v 11.357441 -0.005000 -51.000000
v 128.000000 -0.005000 -51.000000
v 11.305466 -0.005000 -50.000000
v 128.000000 -0.005000 -50.000000
v -128.000000 -0.005000 -50.000000
v -5.077541 -0.005000 -50.000000
v -128.000000 -0.005000 -49.000000
v -5.070346 -0.005000 -49.000000
v 11.305466 -0.005000 -50.000000
v 128.000000 -0.005000 -50.000000
v 11.244993 -0.005000 -49.000000
v 128.000000 -0.005000 -49.000000
v -128.000000 -0.005000 -49.000000
v -5.070346 -0.005000 -49.000000
v -128.000000 -0.005000 -48.000000
v -5.079755 -0.005000 -48.000000
v 11.244993 -0.005000 -49.000000
v 128.000000 -0.005000 -49.000000
v 11.173979 -0.005000 -48.000000
v 128.000000 -0.005000 -48.000000
v -128.000000 -0.005000 -48.000000
v -5.079755 -0.005000 -48.000000
v -128.000000 -0.005000 -47.000000
v -5.107734 -0.005000 -47.000000
v 11.173979 -0.005000 -48.000000
v 128.000000 -0.005000 -48.000000
v 11.090680 -0.005000 -47.000000
v 128.000000 -0.005000 -47.000000
v -128.000000 -0.005000 -47.000000
v -5.107734 -0.005000 -47.000000
v -128.000000 -0.005000 -46.000000
v -5.155897 -0.005000 -46.000000
v 11.090680 -0.005000 -47.000000
v 128.000000 -0.005000 -47.000000
v 10.993680 -0.005000 -46.000000
v 128.000000 -0.005000 -46.000000
v -128.000000 -0.005000 -46.000000
v -5.155897 -0.005000 -46.000000
v -128.000000 -0.005000 -45.000000
v -5.225487 -0.005000 -45.000000
v 10.993680 -0.005000 -46.000000
v 128.000000 -0.005000 -46.000000
v 10.881913 -0.005000 -45.000000
v 128.000000 -0.005000 -45.000000
v -128.000000 -0.005000 -45.000000
v -5.225487 -0.005000 -45.000000
v -128.000000 -0.005000 -44.000000
v -5.317352 -0.005000 -44.000000
v 10.881913 -0.005000 -45.000000
v 128.000000 -0.005000 -45.000000
v 10.754682 -0.005000 -44.000000
v 128.000000 -0.005000 -44.000000
v -128.000000 -0.005000 -44.000000
v -5.317352 -0.005000 -44.000000
v -128.000000 -0.005000 -43.000000
v -5.431938 -0.005000 -43.000000
v 10.754682 -0.005000 -44.000000
v 128.000000 -0.005000 -44.000000
v 10.611669 -0.005000 -43.000000
v 128.000000 -0.005000 -43.000000
v -128.000000 -0.005000 -43.000000
v -5.431938 -0.005000 -43.000000
v -128.000000 -0.005000 -42.000000
v -5.569275 -0.005000 -42.000000
v 10.611669 -0.005000 -43.000000
v 128.000000 -0.005000 -43.000000
v 10.452945 -0.005000 -42.000000
v 128.000000 -0.005000 -42.000000
v -128.000000 -0.005000 -42.000000
v -5.569275 -0.005000 -42.000000
v -128.000000 -0.005000 -41.000000
v -5.728979 -0.005000 -41.000000
v 10.452945 -0.005000 -42.000000
v 128.000000 -0.005000 -42.000000
v 10.278973 -0.005000 -41.000000
v 128.000000 -0.005000 -41.000000
v -128.000000 -0.005000 -41.000000
v -5.728979 -0.005000 -41.000000
v -128.000000 -0.005000 -40.000000
v -5.910249 -0.005000 -40.000000
v 10.278973 -0.005000 -41.000000
v 128.000000 -0.005000 -41.000000
v 10.090604 -0.005000 -40.000000
v 128.000000 -0.005000 -40.000000
v -128.000000 -0.005000 -40.000000
v -5.910249 -0.005000 -40.000000
v -128.000000 -0.005000 -39.000000
v -6.111879 -0.005000 -39.000000
v 10.090604 -0.005000 -40.000000
v 128.000000 -0.005000 -40.000000
v 9.889069 -0.005000 -39.000000
v 128.000000 -0.005000 -39.000000
v -128.000000 -0.005000 -39.000000
v -6.111879 -0.005000 -39.000000
v -128.000000 -0.005000 -38.000000
v -6.332270 -0.005000 -38.000000
v 9.889069 -0.005000 -39.000000
v 128.000000 -0.005000 -39.000000
v 9.675969 -0.005000 -38.000000
v 128.000000 -0.005000 -38.000000
v -128.000000 -0.005000 -38.000000
v -6.332270 -0.005000 -38.000000
v -128.000000 -0.005000 -37.000000
v -6.569443 -0.005000 -37.000000
v 9.675969 -0.005000 -38.000000
v 128.000000 -0.005000 -38.000000
v 9.453254 -0.005000 -37.000000
v 128.000000 -0.005000 -37.000000
v -128.000000 -0.005000 -37.000000
v -6.569443 -0.005000 -37.000000
v -128.000000 -0.005000 -36.000000
v -6.821068 -0.005000 -36.000000
v 9.453254 -0.005000 -37.000000
v 128.000000 -0.005000 -37.000000
v 9.223203 -0.005000 -36.000000
v 128.000000 -0.005000 -36.000000
v -128.000000 -0.005000 -36.000000
v -6.821068 -0.005000 -36.000000
v -128.000000 -0.005000 -35.000000
v -7.084487 -0.005000 -35.000000
v 9.223203 -0.005000 -36.000000
v 128.000000 -0.005000 -36.000000
v 8.988397 -0.005000 -35.000000
v 128.000000 -0.005000 -35.000000
v -128.000000 -0.005000 -35.000000
v -7.084487 -0.005000 -35.000000
v -128.000000 -0.005000 -34.000000
v -7.356746 -0.005000 -34.000000
v 8.988397 -0.005000 -35.000000
v 128.000000 -0.005000 -35.000000
v 8.751686 -0.005000 -34.000000
v 128.000000 -0.005000 -34.000000
v -128.000000 -0.005000 -34.000000
v -7.356746 -0.005000 -34.000000
v -128.000000 -0.005000 -33.000000
v -7.634630 -0.005000 -33.000000
v 8.751686 -0.005000 -34.000000
v 128.000000 -0.005000 -34.000000
v 8.516158 -0.005000 -33.000000
v 128.000000 -0.005000 -33.000000
v -128.000000 -0.005000 -33.000000
v -7.634630 -0.005000 -33.000000
v -128.000000 -0.005000 -32.000000
v -7.914702 -0.005000 -32.000000
v 8.516158 -0.005000 -33.000000
v 128.000000 -0.005000 -33.000000
v 8.285097 -0.005000 -32.000000
v 128.000000 -0.005000 -32.000000
v -128.000000 -0.005000 -32.000000
v -7.914702 -0.005000 -32.000000
v -128.000000 -0.005000 -31.000000
v -8.193344 -0.005000 -31.000000
v 8.285097 -0.005000 -32.000000
v 128.000000 -0.005000 -32.000000
v 8.061945 -0.005000 -31.000000
v 128.000000 -0.005000 -31.000000
v -128.000000 -0.005000 -31.000000
v -8.193344 -0.005000 -31.000000
v -128.000000 -0.005000 -30.000000
v -8.466802 -0.005000 -30.000000
v 8.061945 -0.005000 -31.000000
v 128.000000 -0.005000 -31.000000
v 7.850256 -0.005000 -30.000000
v 128.000000 -0.005000 -30.000000
v -128.000000 -0.005000 -30.000000
v -8.466802 -0.005000 -30.000000
v -128.000000 -0.005000 -29.000000
v -8.731229 -0.005000 -29.000000
v 7.850256 -0.005000 -30.000000
v 128.000000 -0.005000 -30.000000
v 7.653655 -0.005000 -29.000000
v 128.000000 -0.005000 -29.000000
v -128.000000 -0.005000 -29.000000
v -8.731229 -0.005000 -29.000000
v -128.000000 -0.005000 -28.000000
v -8.982735 -0.005000 -28.000000
v 7.653655 -0.005000 -29.000000
v 128.000000 -0.005000 -29.000000
v 7.475787 -0.005000 -28.000000
v 128.000000 -0.005000 -28.000000
v -128.000000 -0.005000 -28.000000
v -8.982735 -0.005000 -28.000000
v -128.000000 -0.005000 -27.000000
v -9.217434 -0.005000 -27.000000
v 7.475787 -0.005000 -28.000000
v 128.000000 -0.005000 -28.000000
v 7.320274 -0.005000 -27.000000
v 128.000000 -0.005000 -27.000000
v -128.000000 -0.005000 -27.000000
v -9.217434 -0.005000 -27.000000
v -128.000000 -0.005000 -26.000000
v -9.431492 -0.005000 -26.000000
v 7.320274 -0.005000 -27.000000
v 128.000000 -0.005000 -27.000000
v 7.190665 -0.005000 -26.000000
v 128.000000 -0.005000 -26.000000
v -128.000000 -0.005000 -26.000000
v -9.431492 -0.005000 -26.000000
v -128.000000 -0.005000 -25.000000
v -9.621174 -0.005000 -25.000000
v 7.190665 -0.005000 -26.000000
v 128.000000 -0.005000 -26.000000
v 7.090391 -0.005000 -25.000000
v 128.000000 -0.005000 -25.000000
v -128.000000 -0.005000 -25.000000
v -9.621174 -0.005000 -25.000000
v -128.000000 -0.005000 -24.000000
v -9.782893 -0.005000 -24.000000
v 7.090391 -0.005000 -25.000000
v 128.000000 -0.005000 -25.000000
v 7.022716 -0.005000 -24.000000
v 128.000000 -0.005000 -24.000000
v -128.000000 -0.005000 -24.000000
v -9.782893 -0.005000 -24.000000
v -128.000000 -0.005000 -23.000000
v -9.913254 -0.005000 -23.000000
v 7.022716 -0.005000 -24.000000
v 128.000000 -0.005000 -24.000000
v 6.990698 -0.005000 -23.000000
v 128.000000 -0.005000 -23.000000
v -128.000000 -0.005000 -23.000000
v -9.913254 -0.005000 -23.000000
v -128.000000 -0.005000 -22.000000
v -10.009097 -0.005000 -22.000000
v 6.990698 -0.005000 -23.000000
v 128.000000 -0.005000 -23.000000
v 6.997142 -0.005000 -22.000000
v 128.000000 -0.005000 -22.000000
v -128.000000 -0.005000 -22.000000
v -10.009097 -0.005000 -22.000000
v -128.000000 -0.005000 -21.000000
v -10.067540 -0.005000 -21.000000
v 6.997142 -0.005000 -22.000000
v 128.000000 -0.005000 -22.000000
v 7.044564 -0.005000 -21.000000
v 128.000000 -0.005000 -21.000000
v -128.000000 -0.005000 -21.000000
v -10.067540 -0.005000 -21.000000
v -128.000000 -0.005000 -20.000000
v -10.086013 -0.005000 -20.000000
v 7.044564 -0.005000 -21.000000
v 128.000000 -0.005000 -21.000000
v 7.135150 -0.005000 -20.000000
v 128.000000 -0.005000 -20.000000
v -128.000000 -0.005000 -20.000000
v -10.086013 -0.005000 -20.000000
v -128.000000 -0.005000 -19.000000
v -10.062295 -0.005000 -19.000000
v 7.135150 -0.005000 -20.000000
v 128.000000 -0.005000 -20.000000
v 7.270731 -0.005000 -19.000000
v 128.000000 -0.005000 -19.000000
v -128.000000 -0.005000 -19.000000
v -10.062295 -0.005000 -19.000000
v -128.000000 -0.005000 -18.000000
v -9.994543 -0.005000 -18.000000
v 7.270731 -0.005000 -19.000000
v 128.000000 -0.005000 -19.000000
v 7.452746 -0.005000 -18.000000
v 128.000000 -0.005000 -18.000000
v -128.000000 -0.005000 -18.000000
v -9.994543 -0.005000 -18.000000
v -128.000000 -0.005000 -17.000000
v -9.881318 -0.005000 -17.000000
v 7.452746 -0.005000 -18.000000
v 128.000000 -0.005000 -18.000000
v 7.682223 -0.005000 -17.000000
v 128.000000 -0.005000 -17.000000
v -128.000000 -0.005000 -17.000000
v -9.881318 -0.005000 -17.000000
v -128.000000 -0.005000 -16.000000
v -9.721607 -0.005000 -16.000000
v 7.682223 -0.005000 -17.000000
v 128.000000 -0.005000 -17.000000
v 7.959757 -0.005000 -16.000000
v 128.000000 -0.005000 -16.000000
v -128.000000 -0.005000 -16.000000
v -9.721607 -0.005000 -16.000000
v -128.000000 -0.005000 -15.000000
v -9.514838 -0.005000 -15.000000
v 7.959757 -0.005000 -16.000000
v 128.000000 -0.005000 -16.000000
v 8.285496 -0.005000 -15.000000
v 128.000000 -0.005000 -15.000000
v -128.000000 -0.005000 -15.000000
v -9.514838 -0.005000 -15.000000
v -128.000000 -0.005000 -14.000000
v -9.260891 -0.005000 -14.000000
v 8.285496 -0.005000 -15.000000
v 128.000000 -0.005000 -15.000000
v 8.659130 -0.005000 -14.000000
v 128.000000 -0.005000 -14.000000
v -128.000000 -0.005000 -14.000000
v -9.260891 -0.005000 -14.000000
v -128.000000 -0.005000 -13.000000
v -8.960107 -0.005000 -13.000000
v 8.659130 -0.005000 -14.000000
v 128.000000 -0.005000 -14.000000
v 9.079891 -0.005000 -13.000000
v 128.000000 -0.005000 -13.000000
v -128.000000 -0.005000 -13.000000
v -8.960107 -0.005000 -13.000000
v -128.000000 -0.005000 -12.000000
v -8.613284 -0.005000 -12.000000
v 9.079891 -0.005000 -13.000000
v 128.000000 -0.005000 -13.000000
v 9.546545 -0.005000 -12.000000
v 128.000000 -0.005000 -12.000000
v -128.000000 -0.005000 -12.000000
v -8.613284 -0.005000 -12.000000
v -128.000000 -0.005000 -11.000000
v -8.221676 -0.005000 -11.000000
v 9.546545 -0.005000 -12.000000
v 128.000000 -0.005000 -12.000000
v 10.057410 -0.005000 -11.000000
v 128.000000 -0.005000 -11.000000
v -128.000000 -0.005000 -11.000000
v -8.221676 -0.005000 -11.000000
v -128.000000 -0.005000 -10.000000
v -7.786981 -0.005000 -10.000000
v 10.057410 -0.005000 -11.000000
v 128.000000 -0.005000 -11.000000
v 10.610357 -0.005000 -10.000000
v 128.000000 -0.005000 -10.000000
v -128.000000 -0.005000 -10.000000
v -7.786981 -0.005000 -10.000000
v -128.000000 -0.005000 -9.000000
v -7.311327 -0.005000 -9.000000
v 10.610357 -0.005000 -10.000000
v 128.000000 -0.005000 -10.000000
v 11.202834 -0.005000 -9.000000
v 128.000000 -0.005000 -9.000000
v -128.000000 -0.005000 -9.000000
v -7.311327 -0.005000 -9.000000
v -128.000000 -0.005000 -8.000000
v -6.797251 -0.005000 -8.000000
v 11.202834 -0.005000 -9.000000
v 128.000000 -0.005000 -9.000000
v 11.831882 -0.005000 -8.000000
v 128.000000 -0.005000 -8.000000
v -128.000000 -0.005000 -8.000000
v -6.797251 -0.005000 -8.000000
v -128.000000 -0.005000 -7.000000
v -6.247674 -0.005000 -7.000000
v 11.831882 -0.005000 -8.000000
v 128.000000 -0.005000 -8.000000
v 12.494167 -0.005000 -7.000000
v 128.000000 -0.005000 -7.000000
v -128.000000 -0.005000 -7.000000
v -6.247674 -0.005000 -7.000000
v -128.000000 -0.005000 -6.000000
v -5.665873 -0.005000 -6.000000
v 12.494167 -0.005000 -7.000000
v 128.000000 -0.005000 -7.000000
v 13.186006 -0.005000 -6.000000
v 128.000000 -0.005000 -6.000000
v -128.000000 -0.005000 -6.000000
v -5.665873 -0.005000 -6.000000
v -128.000000 -0.005000 -5.000000
v -5.055444 -0.005000 -5.000000
v 13.186006 -0.005000 -6.000000
v 128.000000 -0.005000 -6.000000
v 13.903407 -0.005000 -5.000000
v 128.000000 -0.005000 -5.000000
v -128.000000 -0.005000 -5.000000
v -5.055444 -0.005000 -5.000000
v -128.000000 -0.005000 -4.000000
v -4.420271 -0.005000 -4.000000
v 13.903407 -0.005000 -5.000000
v 128.000000 -0.005000 -5.000000
v 14.642102 -0.005000 -4.000000
v 128.000000 -0.005000 -4.000000
v -128.000000 -0.005000 -4.000000
v -4.420271 -0.005000 -4.000000
v -128.000000 -0.005000 -3.000000
v -3.764477 -0.005000 -3.000000
v 14.642102 -0.005000 -4.000000
v 128.000000 -0.005000 -4.000000
v 15.397593 -0.005000 -3.000000
v 128.000000 -0.005000 -3.000000
v -128.000000 -0.005000 -3.000000
v -3.764477 -0.005000 -3.000000
v -128.000000 -0.005000 -2.000000
v -3.092389 -0.005000 -2.000000
v 15.397593 -0.005000 -3.000000
v 128.000000 -0.005000 -3.000000
v 16.165197 -0.005000 -2.000000
v 128.000000 -0.005000 -2.000000
v -128.000000 -0.005000 -2.000000
v -3.092389 -0.005000 -2.000000
v -128.000000 -0.005000 -1.000000
v -2.408486 -0.005000 -1.000000
v 16.165197 -0.005000 -2.000000
v 128.000000 -0.005000 -2.000000
v 16.940090 -0.005000 -1.000000
v 128.000000 -0.005000 -1.000000
v -128.000000 -0.005000 -1.000000
v -2.408486 -0.005000 -1.000000
v -128.000000 -0.005000 0.000000
v -1.717356 -0.005000 0.000000
v 16.940090 -0.005000 -1.000000
v 128.000000 -0.005000 -1.000000
v 17.717356 -0.005000 0.000000
v 128.000000 -0.005000 0.000000
v -128.000000 -0.005000 0.000000
v -1.717356 -0.005000 0.000000
v -128.000000 -0.005000 1.000000
v -1.023644 -0.005000 1.000000
v 17.717356 -0.005000 0.000000
v 128.000000 -0.005000 0.000000
v 18.492041 -0.005000 1.000000
v 128.000000 -0.005000 1.000000
v -128.000000 -0.005000 1.000000
v -1.023644 -0.005000 1.000000
v -128.000000 -0.005000 2.000000
v -0.332006 -0.005000 2.000000
v 18.492041 -0.005000 1.000000
v 128.000000 -0.005000 1.000000
v 19.259197 -0.005000 2.000000
v 128.000000 -0.005000 2.000000
v -128.000000 -0.005000 2.000000
v -0.332006 -0.005000 2.000000
v -128.000000 -0.005000 3.000000
v 0.352945 -0.005000 3.000000
v 19.259197 -0.005000 2.000000
v 128.000000 -0.005000 2.000000
v 20.013939 -0.005000 3.000000
v 128.000000 -0.005000 3.000000
v -128.000000 -0.005000 3.000000
v 0.352945 -0.005000 3.000000
v -128.000000 -0.005000 4.000000
v 1.026680 -0.005000 4.000000
v 20.013939 -0.005000 3.000000
v 128.000000 -0.005000 3.000000
v 20.751489 -0.005000 4.000000
v 128.000000 -0.005000 4.000000
v -128.000000 -0.005000 4.000000
v 1.026680 -0.005000 4.000000
v -128.000000 -0.005000 5.000000
v 1.684812 -0.005000 5.000000
v 20.751489 -0.005000 4.000000
v 128.000000 -0.005000 4.000000
v 21.467226 -0.005000 5.000000
v 128.000000 -0.005000 5.000000
v -128.000000 -0.005000 5.000000
v 1.684812 -0.005000 5.000000
v -128.000000 -0.005000 6.000000
v 2.323130 -0.005000 6.000000
v 21.467226 -0.005000 5.000000
v 128.000000 -0.005000 5.000000
v 22.156737 -0.005000 6.000000
v 128.000000 -0.005000 6.000000
v -128.000000 -0.005000 6.000000
v 2.323130 -0.005000 6.000000
v -128.000000 -0.005000 7.000000
v 2.937655 -0.005000 7.000000
v 22.156737 -0.005000 6.000000
v 128.000000 -0.005000 6.000000
v 22.815853 -0.005000 7.000000
v 128.000000 -0.005000 7.000000
v -128.000000 -0.005000 7.000000
v 2.937655 -0.005000 7.000000
v -128.000000 -0.005000 8.000000
v 3.524669 -0.005000 8.000000
v 22.815853 -0.005000 7.000000
v 128.000000 -0.005000 7.000000
v 23.440701 -0.005000 8.000000
v 128.000000 -0.005000 8.000000
v -128.000000 -0.005000 8.000000
v 3.524669 -0.005000 8.000000
v -128.000000 -0.005000 9.000000
v 4.080762 -0.005000 9.000000
v 23.440701 -0.005000 8.000000
v 128.000000 -0.005000 8.000000
v 24.027731 -0.005000 9.000000
v 128.000000 -0.005000 9.000000
v -128.000000 -0.005000 9.000000
v 4.080762 -0.005000 9.000000
v -128.000000 -0.005000 10.000000
v 4.602862 -0.005000 10.000000
v 24.027731 -0.005000 9.000000
v 128.000000 -0.005000 9.000000
v 24.573762 -0.005000 10.000000
v 128.000000 -0.005000 10.000000
v -128.000000 -0.005000 10.000000
v 4.602862 -0.005000 10.000000
v -128.000000 -0.005000 11.000000
v 5.088265 -0.005000 11.000000
v 24.573762 -0.005000 10.000000
v 128.000000 -0.005000 10.000000
v 25.076001 -0.005000 11.000000
v 128.000000 -0.005000 11.000000
v -128.000000 -0.005000 11.000000
v 5.088265 -0.005000 11.000000
v -128.000000 -0.005000 12.000000
v 5.534659 -0.005000 12.000000
v 25.076001 -0.005000 11.000000
v 128.000000 -0.005000 11.000000
v 25.532079 -0.005000 12.000000
v 128.000000 -0.005000 12.000000
v -128.000000 -0.005000 12.000000
v 5.534659 -0.005000 12.000000
v -128.000000 -0.005000 13.000000
v 5.940150 -0.005000 13.000000
v 25.532079 -0.005000 12.000000
v 128.000000 -0.005000 12.000000
v 25.940066 -0.005000 13.000000
v 128.000000 -0.005000 13.000000
v -128.000000 -0.005000 13.000000
v 5.940150 -0.005000 13.000000
v -128.000000 -0.005000 14.000000
v 6.303274 -0.005000 14.000000
v 25.940066 -0.005000 13.000000
v 128.000000 -0.005000 13.000000
v 26.298487 -0.005000 14.000000
v 128.000000 -0.005000 14.000000
v -128.000000 -0.005000 14.000000
v 6.303274 -0.005000 14.000000
v -128.000000 -0.005000 15.000000
v 6.623006 -0.005000 15.000000
v 26.298487 -0.005000 14.000000
v 128.000000 -0.005000 14.000000
v 26.606336 -0.005000 15.000000
v 128.000000 -0.005000 15.000000
v -128.000000 -0.005000 15.000000
v 6.623006 -0.005000 15.000000
v -128.000000 -0.005000 16.000000
v 6.898771 -0.005000 16.000000
v 26.606336 -0.005000 15.000000
v 128.000000 -0.005000 15.000000
v 26.863079 -0.005000 16.000000
v 128.000000 -0.005000 16.000000
v -128.000000 -0.005000 16.000000
v 6.898771 -0.005000 16.000000
v -128.000000 -0.005000 17.000000
v 7.130438 -0.005000 17.000000
v 26.863079 -0.005000 16.000000
v 128.000000 -0.005000 16.000000
v 27.068657 -0.005000 17.000000
v 128.000000 -0.005000 17.000000
v -128.000000 -0.005000 17.000000
v 7.130438 -0.005000 17.000000
v -128.000000 -0.005000 18.000000
v 7.318322 -0.005000 18.000000
v 27.068657 -0.005000 17.000000
v 128.000000 -0.005000 17.000000
v 27.223475 -0.005000 18.000000
v 128.000000 -0.005000 18.000000
v -128.000000 -0.005000 18.000000
v 7.318322 -0.005000 18.000000
v -128.000000 -0.005000 19.000000
v 7.463167 -0.005000 19.000000
v 27.223475 -0.005000 18.000000
v 128.000000 -0.005000 18.000000
v 27.328397 -0.005000 19.000000
v 128.000000 -0.005000 19.000000
v -128.000000 -0.005000 19.000000
v 7.463167 -0.005000 19.000000
v -128.000000 -0.005000 20.000000
v 7.566134 -0.005000 20.000000
v 27.328397 -0.005000 19.000000
v 128.000000 -0.005000 19.000000
v 27.384729 -0.005000 20.000000
v 128.000000 -0.005000 20.000000
v -128.000000 -0.005000 20.000000
v 7.566134 -0.005000 20.000000
v -128.000000 -0.005000 21.000000
v 7.628781 -0.005000 21.000000
v 27.384729 -0.005000 20.000000
v 128.000000 -0.005000 20.000000
v 27.394196 -0.005000 21.000000
v 128.000000 -0.005000 21.000000
v -128.000000 -0.005000 21.000000
v 7.628781 -0.005000 21.000000
v -128.000000 -0.005000 22.000000
v 7.653037 -0.005000 22.000000
v 27.394196 -0.005000 21.000000
v 128.000000 -0.005000 21.000000
v 27.358918 -0.005000 22.000000
v 128.000000 -0.005000 22.000000
v -128.000000 -0.005000 22.000000
v 7.653037 -0.005000 22.000000
v -128.000000 -0.005000 23.000000
v 7.641174 -0.005000 23.000000
v 27.358918 -0.005000 22.000000
v 128.000000 -0.005000 22.000000
v 27.281382 -0.005000 23.000000
v 128.000000 -0.005000 23.000000
v -128.000000 -0.005000 23.000000
v 7.641174 -0.005000 23.000000
v -128.000000 -0.005000 24.000000
v 7.595772 -0.005000 24.000000
v 27.281382 -0.005000 23.000000
v 128.000000 -0.005000 23.000000
v 27.164404 -0.005000 24.000000
v 128.000000 -0.005000 24.000000
v -128.000000 -0.005000 24.000000
v 7.595772 -0.005000 24.000000
v -128.000000 -0.005000 25.000000
v 7.519686 -0.005000 25.000000
v 27.164404 -0.005000 24.000000
v 128.000000 -0.005000 24.000000
v 27.011097 -0.005000 25.000000
v 128.000000 -0.005000 25.000000
v -128.000000 -0.005000 25.000000
v 7.519686 -0.005000 25.000000
v -128.000000 -0.005000 26.000000
v 7.416002 -0.005000 26.000000
v 27.011097 -0.005000 25.000000
v 128.000000 -0.005000 25.000000
v 26.824824 -0.005000 26.000000
v 128.000000 -0.005000 26.000000
v -128.000000 -0.005000 26.000000
v 7.416002 -0.005000 26.000000
v -128.000000 -0.005000 27.000000
v 7.287999 -0.005000 27.000000
v 26.824824 -0.005000 26.000000
v 128.000000 -0.005000 26.000000
v 26.609161 -0.005000 27.000000
v 128.000000 -0.005000 27.000000
v -128.000000 -0.005000 27.000000
v 7.287999 -0.005000 27.000000
v -128.000000 -0.005000 28.000000
v 7.139100 -0.005000 28.000000
v 26.609161 -0.005000 27.000000
v 128.000000 -0.005000 27.000000
v 26.367848 -0.005000 28.000000
v 128.000000 -0.005000 28.000000
v -128.000000 -0.005000 28.000000
v 7.139100 -0.005000 28.000000
v -128.000000 -0.005000 29.000000
v 6.972831 -0.005000 29.000000
v 26.367848 -0.005000 28.000000
v 128.000000 -0.005000 28.000000
v 26.104744 -0.005000 29.000000
v 128.000000 -0.005000 29.000000
v -128.000000 -0.005000 29.000000
v 6.972831 -0.005000 29.000000
v -128.000000 -0.005000 30.000000
v 6.792772 -0.005000 30.000000
v 26.104744 -0.005000 29.000000
v 128.000000 -0.005000 29.000000
v 25.823775 -0.005000 30.000000
v 128.000000 -0.005000 30.000000
v -128.000000 -0.005000 30.000000
v 6.792772 -0.005000 30.000000
v -128.000000 -0.005000 31.000000
v 6.602509 -0.005000 31.000000
v 25.823775 -0.005000 30.000000
v 128.000000 -0.005000 30.000000
v 25.528891 -0.005000 31.000000
v 128.000000 -0.005000 31.000000
v -128.000000 -0.005000 31.000000
v 6.602509 -0.005000 31.000000
v -128.000000 -0.005000 32.000000
v 6.405588 -0.005000 32.000000
v 25.528891 -0.005000 31.000000
v 128.000000 -0.005000 31.000000
v 25.224016 -0.005000 32.000000
v 128.000000 -0.005000 32.000000
v -128.000000 -0.005000 32.000000
v 6.405588 -0.005000 32.000000
v -128.000000 -0.005000 33.000000
v 6.205471 -0.005000 33.000000
v 25.224016 -0.005000 32.000000
v 128.000000 -0.005000 32.000000
v 24.913000 -0.005000 33.000000
v 128.000000 -0.005000 33.000000
v -128.000000 -0.005000 33.000000
v 6.205471 -0.005000 33.000000
v -128.000000 -0.005000 34.000000
v 6.005488 -0.005000 34.000000
v 24.913000 -0.005000 33.000000
v 128.000000 -0.005000 33.000000
v 24.599571 -0.005000 34.000000
v 128.000000 -0.005000 34.000000
v -128.000000 -0.005000 34.000000
v 6.005488 -0.005000 34.000000
v -128.000000 -0.005000 35.000000
v 5.808796 -0.005000 35.000000
v 24.599571 -0.005000 34.000000
v 128.000000 -0.005000 34.000000
v 24.287294 -0.005000 35.000000
v 128.000000 -0.005000 35.000000
v -128.000000 -0.005000 35.000000
v 5.808796 -0.005000 35.000000
v -128.000000 -0.005000 36.000000
v 5.618336 -0.005000 36.000000
v 24.287294 -0.005000 35.000000
v 128.000000 -0.005000 35.000000
v 23.979529 -0.005000 36.000000
v 128.000000 -0.005000 36.000000
v -128.000000 -0.005000 36.000000
v 5.618336 -0.005000 36.000000
v -128.000000 -0.005000 37.000000
v 5.436801 -0.005000 37.000000
v 23.979529 -0.005000 36.000000
v 128.000000 -0.005000 36.000000
v 23.679388 -0.005000 37.000000
v 128.000000 -0.005000 37.000000
v -128.000000 -0.005000 37.000000
v 5.436801 -0.005000 37.000000
v -128.000000 -0.005000 38.000000
v 5.266597 -0.005000 38.000000
v 23.679388 -0.005000 37.000000
v 128.000000 -0.005000 37.000000
v 23.389704 -0.005000 38.000000
v 128.000000 -0.005000 38.000000
v -128.000000 -0.005000 38.000000
v 5.266597 -0.005000 38.000000
v -128.000000 -0.005000 39.000000
v 5.109813 -0.005000 39.000000
v 23.389704 -0.005000 38.000000
v 128.000000 -0.005000 38.000000
v 23.112998 -0.005000 39.000000
v 128.000000 -0.005000 39.000000
v -128.000000 -0.005000 39.000000
v 5.109813 -0.005000 39.000000
v -128.000000 -0.005000 40.000000
v 4.968197 -0.005000 40.000000
v 23.112998 -0.005000 39.000000
v 128.000000 -0.005000 39.000000
v 22.851448 -0.005000 40.000000
v 128.000000 -0.005000 40.000000
v -128.000000 -0.005000 40.000000
v 4.968197 -0.005000 40.000000
v -128.000000 -0.005000 41.000000
v 4.843134 -0.005000 41.000000
v 22.851448 -0.005000 40.000000
v 128.000000 -0.005000 40.000000
v 22.606872 -0.005000 41.000000
v 128.000000 -0.005000 41.000000
v -128.000000 -0.005000 41.000000
v 4.843134 -0.005000 41.000000
v -128.000000 -0.005000 42.000000
v 4.735627 -0.005000 42.000000
v 22.606872 -0.005000 41.000000
v 128.000000 -0.005000 41.000000
v 22.380703 -0.005000 42.000000
v 128.000000 -0.005000 42.000000
v -128.000000 -0.005000 42.000000
v 4.735627 -0.005000 42.000000
v -128.000000 -0.005000 43.000000
v 4.646290 -0.005000 43.000000
v 22.380703 -0.005000 42.000000
v 128.000000 -0.005000 42.000000
v 22.173979 -0.005000 43.000000
v 128.000000 -0.005000 43.000000
v -128.000000 -0.005000 43.000000
v 4.646290 -0.005000 43.000000
v -128.000000 -0.005000 44.000000
v 4.575334 -0.005000 44.000000
v 22.173979 -0.005000 43.000000
v 128.000000 -0.005000 43.000000
v 21.987337 -0.005000 44.000000
v 128.000000 -0.005000 44.000000
v -128.000000 -0.005000 44.000000
v 4.575334 -0.005000 44.000000
v -128.000000 -0.005000 45.000000
v 4.522570 -0.005000 45.000000
v 21.987337 -0.005000 44.000000
v 128.000000 -0.005000 44.000000
v 21.821004 -0.005000 45.000000
v 128.000000 -0.005000 45.000000
v -128.000000 -0.005000 45.000000
v 4.522570 -0.005000 45.000000
v -128.000000 -0.005000 46.000000
v 4.487415 -0.005000 46.000000
v 21.821004 -0.005000 45.000000
v 128.000000 -0.005000 45.000000
v 21.674803 -0.005000 46.000000
v 128.000000 -0.005000 46.000000
v -128.000000 -0.005000 46.000000
v 4.487415 -0.005000 46.000000
v -128.000000 -0.005000 47.000000
v 4.468893 -0.005000 47.000000
v 21.674803 -0.005000 46.000000
v 128.000000 -0.005000 46.000000
v 21.548161 -0.005000 47.000000
v 128.000000 -0.005000 47.000000
v -128.000000 -0.005000 47.000000
v 4.468893 -0.005000 47.000000
v -128.000000 -0.005000 48.000000
v 4.465657 -0.005000 48.000000
v 21.548161 -0.005000 47.000000
v 128.000000 -0.005000 47.000000
v 21.440119 -0.005000 48.000000
v 128.000000 -0.005000 48.000000
v -128.000000 -0.005000 48.000000
v 4.465657 -0.005000 48.000000
v -128.000000 -0.005000 49.000000
v 4.476004 -0.005000 49.000000
v 21.440119 -0.005000 48.000000
v 128.000000 -0.005000 48.000000
v 21.349349 -0.005000 49.000000
v 128.000000 -0.005000 49.000000
v -128.000000 -0.005000 49.000000
v 4.476004 -0.005000 49.000000
v -128.000000 -0.005000 50.000000
v 4.497896 -0.005000 50.000000
v 21.349349 -0.005000 49.000000
v 128.000000 -0.005000 49.000000
v 21.274180 -0.005000 50.000000
v 128.000000 -0.005000 50.000000
v -128.000000 -0.005000 50.000000
v 4.497896 -0.005000 50.000000
v -128.000000 -0.005000 51.000000
v 4.528993 -0.005000 51.000000
v 21.274180 -0.005000 50.000000
v 128.000000 -0.005000 50.000000
v 21.212620 -0.005000 51.000000
v 128.000000 -0.005000 51.000000
v -128.000000 -0.005000 51.000000
v 4.528993 -0.005000 51.000000
v -128.000000 -0.005000 52.000000
v 4.566683 -0.005000 52.000000
v 21.212620 -0.005000 51.000000
v 128.000000 -0.005000 51.000000
v 21.162390 -0.005000 52.000000
v 128.000000 -0.005000 52.000000
v -128.000000 -0.005000 52.000000
v 4.566683 -0.005000 52.000000
v -128.000000 -0.005000 53.000000
v 4.608114 -0.005000 53.000000
v 21.162390 -0.005000 52.000000
v 128.000000 -0.005000 52.000000
v 21.120955 -0.005000 53.000000
v 128.000000 -0.005000 53.000000
v -128.000000 -0.005000 53.000000
v 4.608114 -0.005000 53.000000
v -128.000000 -0.005000 54.000000
v 4.650238 -0.005000 54.000000
v 21.120955 -0.005000 53.000000
v 128.000000 -0.005000 53.000000
v 21.085566 -0.005000 54.000000
v 128.000000 -0.005000 54.000000
v -128.000000 -0.005000 54.000000
v 4.650238 -0.005000 54.000000
v -128.000000 -0.005000 55.000000
v 4.689848 -0.005000 55.000000
v 21.085566 -0.005000 54.000000
v 128.000000 -0.005000 54.000000
v 21.053294 -0.005000 55.000000
v 128.000000 -0.005000 55.000000
v -128.000000 -0.005000 55.000000
v 4.689848 -0.005000 55.000000
v -128.000000 -0.005000 56.000000
v 4.723627 -0.005000 56.000000
v 21.053294 -0.005000 55.000000
v 128.000000 -0.005000 55.000000
v 21.021080 -0.005000 56.000000
v 128.000000 -0.005000 56.000000
v -128.000000 -0.005000 56.000000
v 4.723627 -0.005000 56.000000
v -128.000000 -0.005000 57.000000
v 4.748187 -0.005000 57.000000
v 21.021080 -0.005000 56.000000
v 128.000000 -0.005000 56.000000
v 20.985775 -0.005000 57.000000
v 128.000000 -0.005000 57.000000
v -128.000000 -0.005000 57.000000
v 4.748187 -0.005000 57.000000
v -128.000000 -0.005000 58.000000
v 4.760119 -0.005000 58.000000
v 20.985775 -0.005000 57.000000
v 128.000000 -0.005000 57.000000
v 20.944185 -0.005000 58.000000
v 128.000000 -0.005000 58.000000
v -128.000000 -0.005000 58.000000
v 4.760119 -0.005000 58.000000
v -128.000000 -0.005000 59.000000
v 4.756042 -0.005000 59.000000
v 20.944185 -0.005000 58.000000
v 128.000000 -0.005000 58.000000
v 20.893120 -0.005000 59.000000
v 128.000000 -0.005000 59.000000
v -128.000000 -0.005000 59.000000
v 4.756042 -0.005000 59.000000
v -128.000000 -0.005000 60.000000
v 4.732645 -0.005000 60.000000
v 20.893120 -0.005000 59.000000
v 128.000000 -0.005000 59.000000
v 20.829441 -0.005000 60.000000
v 128.000000 -0.005000 60.000000
v -128.000000 -0.005000 60.000000
v 4.732645 -0.005000 60.000000
v -128.000000 -0.005000 61.000000
v 4.686738 -0.005000 61.000000
v 20.829441 -0.005000 60.000000
v 128.000000 -0.005000 60.000000
v 20.750101 -0.005000 61.000000
v 128.000000 -0.005000 61.000000
v -128.000000 -0.005000 61.000000
v 4.686738 -0.005000 61.000000
v -128.000000 -0.005000 62.000000
v 4.615295 -0.005000 62.000000
v 20.750101 -0.005000 61.000000
v 128.000000 -0.005000 61.000000
v 20.652195 -0.005000 62.000000
v 128.000000 -0.005000 62.000000
v -128.000000 -0.005000 62.000000
v 4.615295 -0.005000 62.000000
v -128.000000 -0.005000 63.000000
v 4.515500 -0.005000 63.000000
v 20.652195 -0.005000 62.000000
v 128.000000 -0.005000 62.000000
v 20.533001 -0.005000 63.000000
v 128.000000 -0.005000 63.000000
v -128.000000 -0.005000 63.000000
v 4.515500 -0.005000 63.000000
v -128.000000 -0.005000 64.000000
v 4.384783 -0.005000 64.000000
v 20.533001 -0.005000 63.000000
v 128.000000 -0.005000 63.000000
v 20.390020 -0.005000 64.000000
v 128.000000 -0.005000 64.000000
v -128.000000 -0.005000 64.000000
v 4.384783 -0.005000 64.000000
v -128.000000 -0.005000 65.000000
v 4.220865 -0.005000 65.000000
v 20.390020 -0.005000 64.000000
v 128.000000 -0.005000 64.000000
v 20.221018 -0.005000 65.000000
v 128.000000 -0.005000 65.000000
v -128.000000 -0.005000 65.000000
v 4.220865 -0.005000 65.000000
v -128.000000 -0.005000 66.000000
v 4.021790 -0.005000 66.000000
v 20.221018 -0.005000 65.000000
v 128.000000 -0.005000 65.000000
v 20.024056 -0.005000 66.000000
v 128.000000 -0.005000 66.000000
v -128.000000 -0.005000 66.000000
v 4.021790 -0.005000 66.000000
v -128.000000 -0.005000 67.000000
v 3.785957 -0.005000 67.000000
v 20.024056 -0.005000 66.000000
v 128.000000 -0.005000 66.000000
v 19.797525 -0.005000 67.000000
v 128.000000 -0.005000 67.000000
v -128.000000 -0.005000 67.000000
v 3.785957 -0.005000 67.000000
v -128.000000 -0.005000 68.000000
v 3.512146 -0.005000 68.000000
v 19.797525 -0.005000 67.000000
v 128.000000 -0.005000 67.000000
v 19.540174 -0.005000 68.000000
v 128.000000 -0.005000 68.000000
v -128.000000 -0.005000 68.000000
v 3.512146 -0.005000 68.000000
v -128.000000 -0.005000 69.000000
v 3.199545 -0.005000 69.000000
v 19.540174 -0.005000 68.000000
v 128.000000 -0.005000 68.000000
v 19.251128 -0.005000 69.000000
v 128.000000 -0.005000 69.000000
v -128.000000 -0.005000 69.000000
v 3.199545 -0.005000 69.000000
v -128.000000 -0.005000 70.000000
v 2.847764 -0.005000 70.000000
v 19.251128 -0.005000 69.000000
v 128.000000 -0.005000 69.000000
v 18.929915 -0.005000 70.000000
v 128.000000 -0.005000 70.000000
v -128.000000 -0.005000 70.000000
v 2.847764 -0.005000 70.000000
v -128.000000 -0.005000 71.000000
v 2.456850 -0.005000 71.000000
v 18.929915 -0.005000 70.000000
v 128.000000 -0.005000 70.000000
v 18.576472 -0.005000 71.000000
v 128.000000 -0.005000 71.000000
v -128.000000 -0.005000 71.000000
v 2.456850 -0.005000 71.000000
v -128.000000 -0.005000 72.000000
v 2.027298 -0.005000 72.000000
v 18.576472 -0.005000 71.000000
v 128.000000 -0.005000 71.000000
v 18.191157 -0.005000 72.000000
v 128.000000 -0.005000 72.000000
vn 0 1 0
f 1//1 3//1 2//1
f 2//1 3//1 4//1
f 5//1 7//1 6//1
f 6//1 7//1 8//1
f 9//1 11//1 10//1
f 10//1 11//1 12//1
f 13//1 15//1 14//1
f 14//1 15//1 16//1
f 17//1 19//1 18//1
f 18//1 19//1 20//1
f 21//1 23//1 22//1
f 22//1 23//1 24//1
f 25//1 27//1 26//1
f 26//1 27//1 28//1
f 29//1 31//1 30//1
f 30//1 31//1 32//1
f 33//1 35//1 34//1
f 34//1 35//1 36//1
f 37//1 39//1 38//1
f 38//1 39//1 40//1
f 41//1 43//1 42//1
f 42//1 43//1 44//1
f 45//1 47//1 46//1
f 46//1 47//1 48//1
f 49//1 51//1 50//1
f 50//1 51//1 52//1
f 53//1 55//1 54//1
f 54//1 55//1 56//1
f 57//1 59//1 58//1
f 58//1 59//1 60//1
f 61//1 63//1 62//1
f 62//1 63//1 64//1
f 65//1 67//1 66//1
f 66//1 67//1 68//1
f 69//1 71//1 70//1
f 70//1 71//1 72//1
f 73//1 75//1 74//1
f 74//1 75//1 76//1
f 77//1 79//1 78//1
f 78//1 79//1 80//1
f 81//1 83//1 82//1
f 82//1 83//1 84//1
f 85//1 87//1 86//1
f 86//1 87//1 88//1
f 89//1 91//1 90//1
f 90//1 91//1 92//1
f 93//1 95//1 94//1
f 94//1 95//1 96//1
f 97//1 99//1 98//1
f 98//1 99//1 100//1
f 101//1 103//1 102//1
f 102//1 103//1 104//1
f 105//1 107//1 106//1
f 106//1 107//1 108//1
f 109//1 111//1 110//1
f 110//1 111//1 112//1
f 113//1 115//1 114//1
f 114//1 115//1 116//1
f 117//1 119//1 118//1
f 118//1 119//1 120//1
f 121//1 123//1 122//1
f 122//1 123//1 124//1
f 125//1 127//1 126//1
f 126//1 127//1 128//1
f 129//1 131//1 130//1
f 130//1 131//1 132//1
f 133//1 135//1 134//1
f 134//1 135//1 136//1
f 137//1 139//1 138//1
f 138//1 139//1 140//1
f 141//1 143//1 142//1
f 142//1 143//1 144//1
f 145//1 147//1 146//1
f 146//1 147//1 148//1
f 149//1 151//1 150//1
f 150//1 151//1 152//1
f 153//1 155//1 154//1
f 154//1 155//1 156//1
f 157//1 159//1 158//1
f 158//1 159//1 160//1
f 161//1 163//1 162//1
f 162//1 163//1 164//1
f 165//1 167//1 166//1
f 166//1 167//1 168//1
f 169//1 171//1 170//1
f 170//1 171//1 172//1
f 173//1 175//1 174//1
f 174//1 175//1 176//1
f 177//1 179//1 178//1
f 178//1 179//1 180//1
f 181//1 183//1 182//1
f 182//1 183//1 184//1
f 185//1 187//1 186//1
f 186//1 187//1 188//1
f 189//1 191//1 190//1
f 190//1 191//1 192//1
f 193//1 195//1 194//1
f 194//1 195//1 196//1
f 197//1 199//1 198//1
f 198//1 199//1 200//1
f 201//1 203//1 202//1
f 202//1 203//1 204//1
f 205//1 207//1 206//1
f 206//1 207//1 208//1
f 209//1 211//1 210//1
f 210//1 211//1 212//1
f 213//1 215//1 214//1
f 214//1 215//1 216//1
f 217//1 219//1 218//1
f 218//1 219//1 220//1
f 221//1 223//1 222//1
f 222//1 223//1 224//1
f 225//1 227//1 226//1
f 226//1 227//1 228//1
f 229//1 231//1 230//1
f 230//1 231//1 232//1
f 233//1 235//1 234//1
f 234//1 235//1 236//1
f 237//1 239//1 238//1
f 238//1 239//1 240//1
f 241//1 243//1 242//1
f 242//1 243//1 244//1
f 245//1 247//1 246//1
f 246//1 247//1 248//1
f 249//1 251//1 250//1
f 250//1 251//1 252//1
f 253//1 255//1 254//1
f 254//1 255//1 256//1
f 257//1 259//1 258//1
f 258//1 259//1 260//1
f 261//1 263//1 262//1
f 262//1 263//1 264//1
f 265//1 267//1 266//1
f 266//1 267//1 268//1
f 269//1 271//1 270//1
f 270//1 271//1 272//1
f 273//1 275//1 274//1
f 274//1 275//1 276//1
f 277//1 279//1 278//1
f 278//1 279//1 280//1
f 281//1 283//1 282//1
f 282//1 283//1 284//1
f 285//1 287//1 286//1
f 286//1 287//1 288//1
f 289//1 291//1 290//1
f 290//1 291//1 292//1
f 293//1 295//1 294//1
f 294//1 295//1 296//1
f 297//1 299//1 298//1
f 298//1 299//1 300//1
f 301//1 303//1 302//1
f 302//1 303//1 304//1
f 305//1 307//1 306//1
f 306//1 307//1 308//1
f 309//1 311//1 310//1
f 310//1 311//1 312//1
f 313//1 315//1 314//1
f 314//1 315//1 316//1
f 317//1 319//1 318//1
f 318//1 319//1 320//1
f 321//1 323//1 322//1
f 322//1 323//1 324//1
f 325//1 327//1 326//1
f 326//1 327//1 328//1
f 329//1 331//1 330//1
f 330//1 331//1 332//1
f 333//1 335//1 334//1
f 334//1 335//1 336//1
f 337//1 339//1 338//1
f 338//1 339//1 340//1
f 341//1 343//1 342//1
f 342//1 343//1 344//1
f 345//1 347//1 346//1
f 346//1 347//1 348//1
f 349//1 351//1 350//1
f 350//1 351//1 352//1
f 353//1 355//1 354//1
f 354//1 355//1 356//1
f 357//1 359//1 358//1
f 358//1 359//1 360//1
f 361//1 363//1 362//1
f 362//1 363//1 364//1
f 365//1 367//1 366//1
f 366//1 367//1 368//1
f 369//1 371//1 370//1
f 370//1 371//1 372//1
f 373//1 375//1 374//1
f 374//1 375//1 376//1
f 377//1 379//1 378//1
f 378//1 379//1 380//1
f 381//1 383//1 382//1
f 382//1 383//1 384//1
f 385//1 387//1 386//1
f 386//1 387//1 388//1
f 389//1 391//1 390//1
f 390//1 391//1 392//1
f 393//1 395//1 394//1
f 394//1 395//1 396//1
f 397//1 399//1 398//1
f 398//1 399//1 400//1
f 401//1 403//1 402//1
f 402//1 403//1 404//1
f 405//1 407//1 406//1
f 406//1 407//1 408//1
f 409//1 411//1 410//1
f 410//1 411//1 412//1
f 413//1 415//1 414//1
f 414//1 415//1 416//1
f 417//1 419//1 418//1
f 418//1 419//1 420//1
f 421//1 423//1 422//1
f 422//1 423//1 424//1
f 425//1 427//1 426//1
f 426//1 427//1 428//1
f 429//1 431//1 430//1
f 430//1 431//1 432//1
f 433//1 435//1 434//1
f 434//1 435//1 436//1
f 437//1 439//1 438//1
f 438//1 439//1 440//1
f 441//1 443//1 442//1
f 442//1 443//1 444//1
f 445//1 447//1 446//1
f 446//1 447//1 448//1
f 449//1 451//1 450//1
f 450//1 451//1 452//1
f 453//1 455//1 454//1
f 454//1 455//1 456//1
f 457//1 459//1 458//1
f 458//1 459//1 460//1
f 461//1 463//1 462//1
f 462//1 463//1 464//1
f 465//1 467//1 466//1
f 466//1 467//1 468//1
f 469//1 471//1 470//1
f 470//1 471//1 472//1
f 473//1 475//1 474//1
f 474//1 475//1 476//1
f 477//1 479//1 478//1
f 478//1 479//1 480//1
f 481//1 483//1 482//1
f 482//1 483//1 484//1
f 485//1 487//1 486//1
f 486//1 487//1 488//1
f 489//1 491//1 490//1
f 490//1 491//1 492//1
f 493//1 495//1 494//1
f 494//1 495//1 496//1
f 497//1 499//1 498//1
f 498//1 499//1 500//1
f 501//1 503//1 502//1
f 502//1 503//1 504//1
f 505//1 507//1 506//1
f 506//1 507//1 508//1
f 509//1 511//1 510//1
f 510//1 511//1 512//1
f 513//1 515//1 514//1
f 514//1 515//1 516//1
f 517//1 519//1 518//1
f 518//1 519//1 520//1
f 521//1 523//1 522//1
f 522//1 523//1 524//1
f 525//1 527//1 526//1
f 526//1 527//1 528//1
f 529//1 531//1 530//1
f 530//1 531//1 532//1
f 533//1 535//1 534//1
f 534//1 535//1 536//1
f 537//1 539//1 538//1
f 538//1 539//1 540//1
f 541//1 543//1 542//1
f 542//1 543//1 544//1
f 545//1 547//1 546//1
f 546//1 547//1 548//1
f 549//1 551//1 550//1
f 550//1 551//1 552//1
f 553//1 555//1 554//1
f 554//1 555//1 556//1
f 557//1 559//1 558//1
f 558//1 559//1 560//1
f 561//1 563//1 562//1
f 562//1 563//1 564//1
f 565//1 567//1 566//1
f 566//1 567//1 568//1
f 569//1 571//1 570//1
f 570//1 571//1 572//1
f 573//1 575//1 574//1
f 574//1 575//1 576//1
f 577//1 579//1 578//1
f 578//1 579//1 580//1
f 581//1 583//1 582//1
f 582//1 583//1 584//1
f 585//1 587//1 586//1
f 586//1 587//1 588//1
f 589//1 591//1 590//1
f 590//1 591//1 592//1
f 593//1 595//1 594//1
f 594//1 595//1 596//1
f 597//1 599//1 598//1
f 598//1 599//1 600//1
f 601//1 603//1 602//1
f 602//1 603//1 604//1
f 605//1 607//1 606//1
f 606//1 607//1 608//1
f 609//1 611//1 610//1
f 610//1 611//1 612//1
f 613//1 615//1 614//1
f 614//1 615//1 616//1
f 617//1 619//1 618//1
f 618//1 619//1 620//1
f 621//1 623//1 622//1
f 622//1 623//1 624//1
f 625//1 627//1 626//1
f 626//1 627//1 628//1
f 629//1 631//1 630//1
f 630//1 631//1 632//1
f 633//1 635//1 634//1
f 634//1 635//1 636//1
f 637//1 639//1 638//1
f 638//1 639//1 640//1
f 641//1 643//1 642//1
f 642//1 643//1 644//1
f 645//1 647//1 646//1
f 646//1 647//1 648//1
f 649//1 651//1 650//1
f 650//1 651//1 652//1
f 653//1 655//1 654//1
f 654//1 655//1 656//1
f 657//1 659//1 658//1
f 658//1 659//1 660//1
f 661//1 663//1 662//1
f 662//1 663//1 664//1
f 665//1 667//1 666//1
f 666//1 667//1 668//1
f 669//1 671//1 670//1
f 670//1 671//1 672//1
f 673//1 675//1 674//1
f 674//1 675//1 676//1
f 677//1 679//1 678//1
f 678//1 679//1 680//1
f 681//1 683//1 682//1
f 682//1 683//1 684//1
f 685//1 687//1 686//1
f 686//1 687//1 688//1
f 689//1 691//1 690//1
f 690//1 691//1 692//1
f 693//1 695//1 694//1
f 694//1 695//1 696//1
f 697//1 699//1 698//1
f 698//1 699//1 700//1
f 701//1 703//1 702//1
f 702//1 703//1 704//1
f 705//1 707//1 706//1
f 706//1 707//1 708//1
f 709//1 711//1 710//1
f 710//1 711//1 712//1
f 713//1 715//1 714//1
f 714//1 715//1 716//1
f 717//1 719//1 718//1
f 718//1 719//1 720//1
f 721//1 723//1 722//1
f 722//1 723//1 724//1
f 725//1 727//1 726//1
f 726//1 727//1 728//1
f 729//1 731//1 730//1
f 730//1 731//1 732//1
f 733//1 735//1 734//1
f 734//1 735//1 736//1
f 737//1 739//1 738//1
f 738//1 739//1 740//1
f 741//1 743//1 742//1
f 742//1 743//1 744//1
f 745//1 747//1 746//1
f 746//1 747//1 748//1
f 749//1 751//1 750//1
f 750//1 751//1 752//1
f 753//1 755//1 754//1
f 754//1 755//1 756//1
f 757//1 759//1 758//1
f 758//1 759//1 760//1
f 761//1 763//1 762//1
f 762//1 763//1 764//1
f 765//1 767//1 766//1
f 766//1 767//1 768//1
f 769//1 771//1 770//1
f 770//1 771//1 772//1
f 773//1 775//1 774//1
f 774//1 775//1 776//1
f 777//1 779//1 778//1
f 778//1 779//1 780//1
f 781//1 783//1 782//1
f 782//1 783//1 784//1
f 785//1 787//1 786//1
f 786//1 787//1 788//1
f 789//1 791//1 790//1
f 790//1 791//1 792//1
f 793//1 795//1 794//1
f 794//1 795//1 796//1
f 797//1 799//1 798//1
f 798//1 799//1 800//1
f 801//1 803//1 802//1
f 802//1 803//1 804//1
f 805//1 807//1 806//1
f 806//1 807//1 808//1
f 809//1 811//1 810//1
f 810//1 811//1 812//1
f 813//1 815//1 814//1
f 814//1 815//1 816//1
f 817//1 819//1 818//1
f 818//1 819//1 820//1
f 821//1 823//1 822//1
f 822//1 823//1 824//1
f 825//1 827//1 826//1
f 826//1 827//1 828//1
f 829//1 831//1 830//1
f 830//1 831//1 832//1
f 833//1 835//1 834//1
f 834//1 835//1 836//1
f 837//1 839//1 838//1
f 838//1 839//1 840//1
f 841//1 843//1 842//1
f 842//1 843//1 844//1
f 845//1 847//1 846//1
f 846//1 847//1 848//1
f 849//1 851//1 850//1
f 850//1 851//1 852//1
f 853//1 855//1 854//1
f 854//1 855//1 856//1
f 857//1 859//1 858//1
f 858//1 859//1 860//1
f 861//1 863//1 862//1
f 862//1 863//1 864//1
f 865//1 867//1 866//1
f 866//1 867//1 868//1
f 869//1 871//1 870//1
f 870//1 871//1 872//1
f 873//1 875//1 874//1
f 874//1 875//1 876//1
f 877//1 879//1 878//1
f 878//1 879//1 880//1
f 881//1 883//1 882//1
f 882//1 883//1 884//1
f 885//1 887//1 886//1
f 886//1 887//1 888//1
f 889//1 891//1 890//1
f 890//1 891//1 892//1
f 893//1 895//1 894//1
f 894//1 895//1 896//1
f 897//1 899//1 898//1
f 898//1 899//1 900//1
f 901//1 903//1 902//1
f 902//1 903//1 904//1
f 905//1 907//1 906//1
f 906//1 907//1 908//1
f 909//1 911//1 910//1
f 910//1 911//1 912//1
f 913//1 915//1 914//1
f 914//1 915//1 916//1
f 917//1 919//1 918//1
f 918//1 919//1 920//1
f 921//1 923//1 922//1
f 922//1 923//1 924//1
f 925//1 927//1 926//1
f 926//1 927//1 928//1
f 929//1 931//1 930//1
f 930//1 931//1 932//1
f 933//1 935//1 934//1
f 934//1 935//1 936//1
f 937//1 939//1 938//1
f 938//1 939//1 940//1
f 941//1 943//1 942//1
f 942//1 943//1 944//1
f 945//1 947//1 946//1
f 946//1 947//1 948//1
f 949//1 951//1 950//1
f 950//1 951//1 952//1
f 953//1 955//1 954//1
f 954//1 955//1 956//1
f 957//1 959//1 958//1
f 958//1 959//1 960//1
f 961//1 963//1 962//1
f 962//1 963//1 964//1
f 965//1 967//1 966//1
f 966//1 967//1 968//1
f 969//1 971//1 970//1
f 970//1 971//1 972//1
f 973//1 975//1 974//1
f 974//1 975//1 976//1
f 977//1 979//1 978//1
f 978//1 979//1 980//1
f 981//1 983//1 982//1
f 982//1 983//1 984//1
f 985//1 987//1 986//1
f 986//1 987//1 988//1
f 989//1 991//1 990//1
f 990//1 991//1 992//1
f 993//1 995//1 994//1
f 994//1 995//1 996//1
f 997//1 999//1 998//1
f 998//1 999//1 1000//1
f 1001//1 1003//1 1002//1
f 1002//1 1003//1 1004//1
f 1005//1 1007//1 1006//1
f 1006//1 1007//1 1008//1
f 1009//1 1011//1 1010//1
f 1010//1 1011//1 1012//1
f 1013//1 1015//1 1014//1
f 1014//1 1015//1 1016//1
f 1017//1 1019//1 1018//1
f 1018//1 1019//1 1020//1
f 1021//1 1023//1 1022//1
f 1022//1 1023//1 1024//1
f 1025//1 1027//1 1026//1
f 1026//1 1027//1 1028//1
f 1029//1 1031//1 1030//1
f 1030//1 1031//1 1032//1
f 1033//1 1035//1 1034//1
f 1034//1 1035//1 1036//1
f 1037//1 1039//1 1038//1
f 1038//1 1039//1 1040//1
f 1041//1 1043//1 1042//1
f 1042//1 1043//1 1044//1
f 1045//1 1047//1 1046//1
f 1046//1 1047//1 1048//1
f 1049//1 1051//1 1050//1
f 1050//1 1051//1 1052//1
f 1053//1 1055//1 1054//1
f 1054//1 1055//1 1056//1
f 1057//1 1059//1 1058//1
f 1058//1 1059//1 1060//1
f 1061//1 1063//1 1062//1
f 1062//1 1063//1 1064//1
f 1065//1 1067//1 1066//1
f 1066//1 1067//1 1068//1
f 1069//1 1071//1 1070//1
f 1070//1 1071//1 1072//1
f 1073//1 1075//1 1074//1
f 1074//1 1075//1 1076//1
f 1077//1 1079//1 1078//1
f 1078//1 1079//1 1080//1
f 1081//1 1083//1 1082//1
f 1082//1 1083//1 1084//1
f 1085//1 1087//1 1086//1
f 1086//1 1087//1 1088//1
f 1089//1 1091//1 1090//1
f 1090//1 1091//1 1092//1
f 1093//1 1095//1 1094//1
f 1094//1 1095//1 1096//1
f 1097//1 1099//1 1098//1
f 1098//1 1099//1 1100//1
f 1101//1 1103//1 1102//1
f 1102//1 1103//1 1104//1
f 1105//1 1107//1 1106//1
f 1106//1 1107//1 1108//1
f 1109//1 1111//1 1110//1
f 1110//1 1111//1 1112//1
f 1113//1 1115//1 1114//1
f 1114//1 1115//1 1116//1
f 1117//1 1119//1 1118//1
f 1118//1 1119//1 1120//1
f 1121//1 1123//1 1122//1
f 1122//1 1123//1 1124//1
f 1125//1 1127//1 1126//1
f 1126//1 1127//1 1128//1
f 1129//1 1131//1 1130//1
f 1130//1 1131//1 1132//1
f 1133//1 1135//1 1134//1
f 1134//1 1135//1 1136//1
f 1137//1 1139//1 1138//1
f 1138//1 1139//1 1140//1
f 1141//1 1143//1 1142//1
f 1142//1 1143//1 1144//1
f 1145//1 1147//1 1146//1
f 1146//1 1147//1 1148//1
f 1149//1 1151//1 1150//1
f 1150//1 1151//1 1152//1
