# Snowfield terraced_bluff: deterministic authored geometry
o terraced_bluff
v 0.940255 0.000000 0.000000
v 0.751013 0.000000 0.545643
v 0.275063 0.000000 0.846555
v -0.334927 0.000000 1.030800
v -0.758820 0.000000 0.551315
v -0.940176 0.000000 0.000000
v -0.894400 0.000000 -0.649819
v -0.301173 0.000000 -0.926914
v 0.307487 0.000000 -0.946349
v 0.728559 0.000000 -0.529329
v 1.015734 0.118927 -0.006536
v 0.773925 0.108506 0.517887
v 0.335822 0.154523 0.922245
v -0.300545 0.103863 0.950300
v -0.806160 0.168871 0.544114
v -1.002377 0.137788 -0.077198
v -0.652869 0.095906 -0.597061
v -0.196676 0.127098 -0.935453
v 0.394867 0.166655 -0.959774
v 0.829330 0.134478 -0.558815
v 0.763445 0.636529 -0.034885
v 0.710796 0.683236 0.415925
v 0.265535 0.621520 0.504175
v -0.126502 0.636512 0.529785
v -0.515504 0.622596 0.316942
v -0.542361 0.664871 -0.126441
v -0.355086 0.658473 -0.478796
v -0.045330 0.645758 -0.743631
v 0.397297 0.653766 -0.765966
v 0.746268 0.639674 -0.471173
v 0.774245 0.935055 -0.057374
v 0.583103 0.891864 0.243160
v 0.299293 0.945806 0.442002
v -0.040980 0.915158 0.375956
v -0.299087 0.919729 0.156422
v -0.455870 0.894945 -0.187013
v -0.226587 0.901855 -0.486299
v 0.042225 0.922880 -0.769074
v 0.415775 0.906050 -0.649161
v 0.653708 0.890039 -0.393319
v 0.130000 0.940000 -0.080000
vn 0.816698 -0.502765 0.283251
vn 0.905479 -0.084837 0.415826
vn 0.531557 0.102820 0.840758
vn 0.543531 -0.531823 0.649414
vn 0.249836 -0.503399 0.827147
vn -0.014257 0.615483 0.788021
vn -0.596095 0.605774 0.526982
vn -0.630941 -0.144368 0.762281
vn -0.920915 -0.245243 0.302938
vn -0.920715 -0.245830 0.303071
vn -0.895885 -0.439781 -0.063111
vn -0.301892 0.912374 -0.276468
vn -0.227953 0.842540 -0.488020
vn -0.560684 0.412752 -0.717823
vn -0.031887 -0.040875 -0.998655
vn -0.036931 -0.060985 -0.997455
vn 0.647341 -0.392065 -0.653632
vn 0.545178 -0.547684 -0.634684
vn 0.733124 -0.613647 -0.293199
vn 0.802003 -0.524692 -0.285465
vn 0.820465 0.421090 0.386680
vn 0.986696 0.126497 0.102126
vn 0.675791 0.200086 0.709417
vn 0.053719 0.670512 0.739951
vn -0.020048 0.665188 0.746406
vn 0.074945 0.602703 0.794438
vn -0.428319 0.641994 0.635914
vn -0.399708 0.602105 0.691161
vn -0.770648 0.600490 0.213337
vn -0.743994 0.659410 0.107938
vn -0.675811 0.543281 -0.498121
vn -0.764907 0.492231 -0.415482
vn -0.553820 0.441553 -0.705914
vn -0.577739 0.426067 -0.696193
vn -0.062456 0.362182 -0.930012
vn -0.053496 0.369387 -0.927735
vn 0.663153 0.273846 -0.696589
vn 0.633133 0.232193 -0.738396
vn 0.928888 0.206104 -0.307714
vn 0.899132 0.436488 -0.032251
vn 0.992563 -0.026967 0.118711
vn 0.546680 0.706625 0.449246
vn 0.057767 0.657476 0.751258
vn 0.583181 0.093992 0.806886
vn 0.070993 0.180686 0.980975
vn -0.207628 0.520842 0.828018
vn -0.420454 0.533998 0.733529
vn -0.479336 0.661011 0.577323
vn -0.775533 0.622291 0.106309
vn -0.840783 0.409347 0.354288
vn -0.863158 0.202736 -0.462445
vn -0.740451 0.373717 -0.558630
vn -0.612563 0.300885 -0.730913
vn -0.720856 0.165967 -0.672921
vn -0.048878 -0.075995 -0.995909
vn 0.297940 0.383005 -0.874379
vn 0.624381 0.290059 -0.725269
vn 0.672820 0.434858 -0.598507
vn 0.933898 0.355900 -0.034201
vn 0.942095 -0.058953 -0.330123
vn 0.002543 0.989598 0.143838
vn 0.146660 0.987453 -0.058547
vn -0.093389 0.995444 0.019215
vn -0.021679 0.998693 0.046283
vn -0.069295 0.996782 -0.040300
vn -0.070949 0.996988 -0.031333
vn -0.091623 0.995708 -0.013068
vn 0.055178 0.997969 -0.031823
vn 0.085031 0.996238 -0.016731
vn 0.012420 0.990468 -0.137180
f 1//1 11//1 2//1
f 2//2 11//2 12//2
f 2//3 12//3 3//3
f 3//4 12//4 13//4
f 3//5 13//5 4//5
f 4//6 13//6 14//6
f 4//7 14//7 5//7
f 5//8 14//8 15//8
f 5//9 15//9 6//9
f 6//10 15//10 16//10
f 6//11 16//11 7//11
f 7//12 16//12 17//12
f 7//13 17//13 8//13
f 8//14 17//14 18//14
f 8//15 18//15 9//15
f 9//16 18//16 19//16
f 9//17 19//17 10//17
f 10//18 19//18 20//18
f 10//19 20//19 1//19
f 1//20 20//20 11//20
f 11//21 21//21 12//21
f 12//22 21//22 22//22
f 12//23 22//23 13//23
f 13//24 22//24 23//24
f 13//25 23//25 14//25
f 14//26 23//26 24//26
f 14//27 24//27 15//27
f 15//28 24//28 25//28
f 15//29 25//29 16//29
f 16//30 25//30 26//30
f 16//31 26//31 17//31
f 17//32 26//32 27//32
f 17//33 27//33 18//33
f 18//34 27//34 28//34
f 18//35 28//35 19//35
f 19//36 28//36 29//36
f 19//37 29//37 20//37
f 20//38 29//38 30//38
f 20//39 30//39 11//39
f 11//40 30//40 21//40
f 21//41 31//41 22//41
f 22//42 31//42 32//42
f 22//43 32//43 23//43
f 23//44 32//44 33//44
f 23//45 33//45 24//45
f 24//46 33//46 34//46
f 24//47 34//47 25//47
f 25//48 34//48 35//48
f 25//49 35//49 26//49
f 26//50 35//50 36//50
f 26//51 36//51 27//51
f 27//52 36//52 37//52
f 27//53 37//53 28//53
f 28//54 37//54 38//54
f 28//55 38//55 29//55
f 29//56 38//56 39//56
f 29//57 39//57 30//57
f 30//58 39//58 40//58
f 30//59 40//59 21//59
f 21//60 40//60 31//60
f 31//61 41//61 32//61
f 32//62 41//62 33//62
f 33//63 41//63 34//63
f 34//64 41//64 35//64
f 35//65 41//65 36//65
f 36//66 41//66 37//66
f 37//67 41//67 38//67
f 38//68 41//68 39//68
f 39//69 41//69 40//69
f 40//70 41//70 31//70
